<svg xmlns="http://www.w3.org/2000/svg" viewBox="0 0 257.17 83.06"><defs><style>.cls-1{fill:none;stroke:#1d1d1b;stroke-miterlimit:10;stroke-width:1.51px;}</style></defs><title>Asset 2</title><g id="Layer_2" data-name="Layer 2"><g id="Layer_1-2" data-name="Layer 1"><path d="M97.64,39.29A53.51,53.51,0,0,0,95.8,27.83c-.43,0-.5-.08-.4-.28L95,26.76l.48.19c-.31-.22-.31-.22-.5-.72l.37.23a.84.84,0,0,0-.08-.32c-.12-.19,0-.36,0-.53a3.83,3.83,0,0,0-.13-.74h0l.17.29a.72.72,0,0,0,.19-.31,1.23,1.23,0,0,1,.16-.43c.14-.16.23-.28.06-.49s-.14-.32.17-.35l0-.34.28.11.21-.4.1.15.21-.24,0,0-.23.89.15-.09,0,0L96.4,24l.23-.05-.09.25.47-.16a1,1,0,0,1-.38.45c-.25.11-.27.21-.06.47a4.4,4.4,0,0,0-.48-.16c-.14,0-.32,0-.4,0a1,1,0,0,0-.36.82.32.32,0,0,0,.14.22c.22.12.38.25.3.51,0,0,0,0,0,0l.12-.3.1.08L96.3,26l.07,0,0,.51.15-.05.12.7.31-.08-.2.56.16.09,0,.1a.68.68,0,0,1-.29-.05.29.29,0,0,0-.4.08c-.23.24-.08.49,0,.75.13.51.25,1,.36,1.54,0,.22,0,.46.1.68.14.56.31,1.12.46,1.64l.3-.43a.68.68,0,0,1-.1.33,1,1,0,0,0-.13.46c.16,1.19.37,2.37.5,3.56Z"/><path d="M97.88,35.76c.1-1.76.31-3.52.44-5.28a1.48,1.48,0,0,0-.2-.66,1.23,1.23,0,0,1-.15-.49l.42.62c.16-.78.35-1.61.5-2.45.07-.33,0-.67.09-1,.12-.76.24-1.53.38-2.29.07-.38.25-.75-.06-1.1a.35.35,0,0,0-.52-.09,1,1,0,0,1-.38.09l0-.14.21-.15L98.28,22l.4.09.12-1,.2.07-.09-.74.1-.07.36.42.14-.12.17.42,0-.05c-.12-.38.07-.59.36-.78a.56.56,0,0,0,.17-.33,1.58,1.58,0,0,0-.53-1.19c-.1-.09-.34-.05-.51,0a3.68,3.68,0,0,0-.63.26c.26-.39.23-.55-.1-.68s-.38-.39-.53-.65l.62.2-.13-.36.31.07L98.31,17l0-.06.2.14-.34-1.3.06-.05.28.34.12-.22.3.57.36-.18.09.5c.41,0,.32.38.24.51-.2.32-.08.48.11.72a1.7,1.7,0,0,1,.23.62,1.24,1.24,0,0,0,.27.45l.21-.45,0,0a6.75,6.75,0,0,0-.13,1.09c0,.26.18.49,0,.78a1.85,1.85,0,0,0-.08.48l.47-.36c-.22.74-.22.74-.61,1.09l.62-.32-.55,1.2c.15.29.06.42-.5.43a87.81,87.81,0,0,0-1.71,17Z"/><path d="M97.78,29.74a15.72,15.72,0,0,1-.22-1.66,4.4,4.4,0,0,1,0-.73.45.45,0,0,0,0-.13l-.1.41h0a3.26,3.26,0,0,1,0-.33,1,1,0,0,0,0-.8l-.06.39h-.08A4,4,0,0,0,97,24.83l-.1.39h0c0-.1,0-.2,0-.3s.06-.42,0-.57a6.08,6.08,0,0,1-.29-.85l-.08.08,0,0a1,1,0,0,0,0-.3,8.78,8.78,0,0,0-.44-.79,2.3,2.3,0,0,0,.32,1.13l-.17-.26a4.21,4.21,0,0,0,.64,2l0,0-.14-.19,0,0,.26.57-.18-.12.17.42a.35.35,0,0,1,0,.33c0,.1.09.28.14.43s.15.16,0,.28,0,.2,0,.29a4.88,4.88,0,0,1,.41,1.48c.13.71.28,1.43.36,2.14Z"/><path d="M98.29,31.31c0-.49,0-1,0-1.46,0-.16,0-.32,0-.48h0a.08.08,0,0,1,0,0c0,.37.06.75.08,1.12"/><path d="M98.24,29.37a.49.49,0,0,1,0-.12s0-.08,0-.09c.29-.1.14-.33.13-.52a2.38,2.38,0,0,0,0-.46c0-.17,0-.35-.11-.51s0-.06,0-.08,0-.26,0-.39,0,0,0-.05c-.08-.22-.17-.44-.27-.65,0-.06-.09-.1-.14-.15s-.08.09-.08.13,0,.34,0,.51,0,.6.06.9a4,4,0,0,0,.11.47s0,0,0,0c-.06.2.07.37.14.55s.09.12.14.18a.41.41,0,0,1,0,.09c0,.05,0,.11,0,.16Z"/><path d="M94,30.39s0-.09,0-.14,0-.09,0-.1c.3-.16.1-.4.07-.61A2.89,2.89,0,0,0,94,29c-.07-.19,0-.41-.19-.57s0-.06,0-.09l-.12-.44a.11.11,0,0,0,0-.05c-.12-.23-.24-.47-.38-.7a.62.62,0,0,0-.18-.14c0,.05-.07.11-.07.16s.06.38.09.58.12.67.19,1a5.62,5.62,0,0,0,.19.53s0,0,0,0c-.05.24.12.42.22.61s.12.12.17.18l.08.1a.87.87,0,0,0,.07.17Z"/><path d="M95.73,34.83v-.14s0-.1,0-.11c.38-.11.17-.38.17-.59a2.5,2.5,0,0,0-.07-.54c0-.2,0-.41-.15-.6a.18.18,0,0,1,0-.1c0-.15,0-.3-.08-.45s0,0,0,0c-.12-.26-.23-.52-.37-.78,0-.06-.12-.11-.19-.17s-.1.1-.1.15,0,.4,0,.6.05.69.1,1a4.25,4.25,0,0,0,.15.56l0,0c-.09.23.08.43.18.64s.12.14.18.21l.08.11.06.19Z"/><path d="M99.65,37.06c-.12-.82-.19-1.65-.29-2.47a.57.57,0,0,0-.16-.27.56.56,0,0,1-.12-.2l.26.21c0-.38,0-.79,0-1.19,0-.16,0-.31-.06-.47,0-.37,0-.74,0-1.11,0-.18,0-.38-.14-.49a.16.16,0,0,0-.25,0c0,.05-.12.07-.17.1l0-.06.08-.1-.21-.32.2,0,0-.49h.11l-.12-.32,0-.05.21.14L99,29.9l.12.17,0,0c-.1-.16,0-.28.09-.42a.22.22,0,0,0,0-.17.58.58,0,0,0-.36-.46c-.06,0-.17,0-.24.07a2.94,2.94,0,0,0-.27.22c.08-.22,0-.28-.12-.29s-.21-.12-.31-.21h.31l-.09-.14.15,0-.26-.15,0,0,.1,0-.28-.53,0,0,.16.11,0-.12.19.21L98.5,28l.08.21c.2-.05.19.12.16.19s0,.24.13.31.11.17.16.25a.44.44,0,0,0,.17.16l.06-.23h0a2.89,2.89,0,0,0,0,.52c0,.11.14.2.09.35a.6.6,0,0,0,0,.23l.19-.23a.86.86,0,0,1-.19.59l.27-.25-.15.64c.1.11.06.18-.2.27a40.23,40.23,0,0,0,.8,8Z"/><path d="M97.28,32.53a10.94,10.94,0,0,0-.14-1.15,3.23,3.23,0,0,0-.15-.47s0-.05,0-.1l.13.25,0,0c0-.07-.05-.15-.08-.21A.71.71,0,0,1,97,30.3l.1.24,0,0a3,3,0,0,1-.19-1.42l.13.24h0c0-.07,0-.13-.07-.2a.85.85,0,0,1-.07-.38,3.29,3.29,0,0,0,0-.63l.07,0v0a.71.71,0,0,1,0-.2,4.75,4.75,0,0,1,.14-.63,1.89,1.89,0,0,1,0,.82l.06-.21a3.21,3.21,0,0,1-.07,1.44h0l.06-.16h0l-.06.44.09-.13c0,.13,0,.23,0,.33a.25.25,0,0,0,0,.22c0,.06,0,.21,0,.32s-.06.14,0,.19,0,.14,0,.2a3.92,3.92,0,0,0,0,1.08c0,.5.07,1,.14,1.5Z"/><path d="M98.92,31.16l0-.11s0-.07,0-.06c-.27,0-.19-.25-.22-.42a1.85,1.85,0,0,1-.06-.42c0-.16-.1-.3,0-.49a.14.14,0,0,0,0-.09l0-.36s0,0,0,0c0-.23.06-.45.1-.68a.76.76,0,0,1,.09-.18s.09.05.1.09.07.3.1.46.1.54.14.81,0,.31,0,.46a.1.1,0,0,1,0,0c.1.15,0,.35,0,.54a1,1,0,0,1-.08.2.45.45,0,0,0,0,.11s0,.1,0,.15Z"/><path d="M158.08,40.45a34.69,34.69,0,0,0-4.21-7.35c-.34.13-.42.09-.39-.08l-.55-.41h.43c-.3-.07-.3-.07-.57-.36l.35.06c0-.07-.07-.16-.14-.2s-.09-.25-.13-.37a2.46,2.46,0,0,0-.28-.46l0,0,.21.15a.54.54,0,0,0,.07-.27c0-.11,0-.23,0-.33s.11-.26-.07-.36-.19-.18,0-.29l0-.24h.24l.07-.33.12.08.1-.22h.05l0,.68.09-.11h0l-.18.32.17-.1v.19l.33-.23a.77.77,0,0,1-.19.42c-.17.14-.16.21.07.33a2.19,2.19,0,0,0-.42,0,.63.63,0,0,0-.31.12.71.71,0,0,0-.09.67.26.26,0,0,0,.17.11c.2,0,.36.07.36.27h0l0-.23.1,0,.14-.27h.07l.09.36.1-.08.27.44.22-.13,0,.44h.15v.08a1.14,1.14,0,0,1-.24,0,.26.26,0,0,0-.3.16c-.12.23.06.36.17.51q.35.48.66,1c.09.14.15.3.24.44.25.34.52.68.76,1l.14-.38a.46.46,0,0,1,0,.26c0,.11-.05.25,0,.34.42.78.87,1.53,1.26,2.31Z"/><path d="M157.42,38c-.35-1.23-.61-2.5-.93-3.74,0-.15-.2-.27-.32-.4a.76.76,0,0,1-.23-.29l.48.31c-.06-.58-.12-1.2-.2-1.82,0-.24-.13-.47-.17-.71-.1-.56-.18-1.12-.25-1.68,0-.28,0-.59-.32-.74a.31.31,0,0,0-.43.09,1.28,1.28,0,0,1-.28.16l-.07-.09.14-.16-.43-.47.34-.05-.16-.74.18,0-.26-.48.06-.07.39.18.08-.12.23.25,0-.05c-.19-.23-.09-.43.09-.64a.32.32,0,0,0,0-.27,1.06,1.06,0,0,0-.7-.67c-.1,0-.28.06-.41.13a4.26,4.26,0,0,0-.43.36c.11-.34.05-.44-.25-.44a1.06,1.06,0,0,1-.57-.3l.54,0-.19-.21.26,0-.47-.2,0-.05.19,0-.59-.79.05-.05.3.15,0-.18.37.31.25-.23.18.32c.34-.09.35.18.31.28-.08.28.06.36.27.47s.22.24.33.36a.78.78,0,0,0,.32.23l.06-.36h0a4,4,0,0,0,.17.78c.07.17.26.29.21.53a1,1,0,0,0,0,.34l.29-.37c0,.57,0,.57-.22.92l.41-.39-.14,1c.19.16.14.27-.3.44a56.06,56.06,0,0,0,2.77,12.12Z"/><path d="M155.89,33.87a11.37,11.37,0,0,1-.58-1.09,3.65,3.65,0,0,1-.14-.5s0,0-.06-.09v.32h0a1,1,0,0,1-.05-.24.67.67,0,0,0-.21-.54l0,.29-.06,0a2.53,2.53,0,0,0-.7-1.34l0,.3h0a1.66,1.66,0,0,0-.06-.21c0-.13-.05-.3-.16-.38a4.06,4.06,0,0,1-.43-.5l0,.08,0,0a.57.57,0,0,0-.1-.19,5.56,5.56,0,0,0-.54-.42c.05.3.32.46.52.68l-.19-.13a2.78,2.78,0,0,0,1,1.16l0,0-.16-.1,0,0,.35.32-.17,0,.24.24c.06.06.12.1.11.21s.13.17.21.26.16.06.1.18.05.14.11.18a3.29,3.29,0,0,1,.68.9c.27.46.56.9.8,1.37Z"/><path d="M156.67,34.8l-.39-1-.12-.33h0l0,0c.12.24.24.49.34.74"/><path d="M156.16,33.48a.24.24,0,0,1,0-.08s0-.06,0-.07c.2-.15,0-.27,0-.39a1.64,1.64,0,0,0-.14-.3c-.08-.11-.07-.25-.22-.33s0,0,0,0-.1-.17-.14-.26l0,0-.37-.37a.52.52,0,0,0-.15-.06s0,.08,0,.11.09.23.14.35.17.4.27.59a2,2,0,0,0,.2.3h0c0,.16.14.24.24.35l.15.08a.18.18,0,0,1,.07,0l.07.09Z"/><path d="M159.13,38.36c-.29-.52-.54-1.08-.83-1.61,0-.07-.12-.1-.19-.14a.45.45,0,0,1-.14-.11l.26.08c-.09-.26-.18-.54-.28-.82,0-.11-.12-.2-.16-.31l-.3-.75c0-.12-.05-.27-.22-.3a.16.16,0,0,0-.19.1,1.31,1.31,0,0,1-.11.12l0,0,0-.1-.25-.16.16-.07-.16-.32.08,0-.17-.19,0,0,.2,0,0-.07.13.08v0c-.11-.08-.09-.18,0-.31a.15.15,0,0,0,0-.13.45.45,0,0,0-.39-.21c-.06,0-.13.06-.18.11a2.12,2.12,0,0,0-.16.23c0-.18,0-.21-.16-.17a.48.48,0,0,1-.3-.06l.25-.09-.11-.07.11-.06-.23,0v0h.09l-.35-.29v0l.16,0v-.09l.2.09.09-.14.12.12c.14-.08.18,0,.17.09s.07.16.18.18.12.08.19.12a.3.3,0,0,0,.17.07v-.18h0a3.54,3.54,0,0,0,.16.34c.06.07.16.1.16.22a.47.47,0,0,0,.06.15l.09-.21a.61.61,0,0,1,0,.46l.15-.24,0,.47c.11,0,.1.11-.09.25A26.16,26.16,0,0,0,160,39.54Z"/><path d="M156.17,35.92a5.4,5.4,0,0,0-.4-.75,1.56,1.56,0,0,0-.23-.28.64.64,0,0,1,0-.07l.17.13,0,0-.12-.12a.44.44,0,0,1-.22-.33l.14.14,0,0a1.91,1.91,0,0,1-.49-.92l.16.13v0l-.09-.11c-.06-.08-.15-.16-.15-.25a3.19,3.19,0,0,0-.13-.44h.06v0a.56.56,0,0,1-.07-.13,2.49,2.49,0,0,1,0-.47,1.17,1.17,0,0,1,.19.56v-.16a1.93,1.93,0,0,1,.3,1h0v-.12h0l.06.32,0-.11c0,.09,0,.16,0,.23s0,.11.08.15.05.14.07.22,0,.11.06.13.06.08.06.13a2.6,2.6,0,0,0,.26.74c.15.33.3.67.48,1Z"/><path d="M157.13,34.52l0-.06-.05,0c-.22.09-.21-.11-.28-.22a.89.89,0,0,1-.15-.27c0-.11-.15-.18-.13-.33a.14.14,0,0,0,0-.06l-.12-.24v0c0-.16-.07-.32-.09-.49s0-.1,0-.15.08,0,.1,0a2.75,2.75,0,0,1,.19.28c.1.17.21.34.3.52a1.75,1.75,0,0,1,.12.32v0c.12.07.11.23.14.36s0,.11,0,.17v.08l0,.1Z"/><path d="M159.26,32.49a7,7,0,0,0,.27-.72c0-.11-.08-.24-.08-.37a1.21,1.21,0,0,1,.05-.42s.14-.05.25-.08c0,0-.07-.1-.12-.12q-.48-.13-.21-.51l.16-.25.11.16.1-.22.16.25,0-.39.2.07.09-.42h.05l0,.17.6-.42c.16.28.16.28-.1.54l.27-.05a1.36,1.36,0,0,1-.1.36c-.07.12-.2.21-.27.35l.21-.07c-.23.45-.74.31-1.12.43l0,.09a3.7,3.7,0,0,1,1.15-.09c-.22.22-.14.83-.86.59,0,.18.16.2.66.13-.5.39-.74.45-1.07.31l-.45.7Z"/><path d="M159,37c0-1.48.14-3,.19-4.45A1.34,1.34,0,0,0,159,32a.91.91,0,0,1-.14-.41l.37.51c.11-.66.24-1.36.34-2.07,0-.28,0-.57,0-.85.07-.65.16-1.3.25-1.94,0-.32.18-.64-.1-.93a.29.29,0,0,0-.44-.06,1,1,0,0,1-.31.09l0-.12.18-.13-.28-.68.34.07.06-.88.18.05-.11-.62.08-.06.32.34.11-.11.16.36,0,0a.53.53,0,0,1,.27-.67.39.39,0,0,0,.14-.29,1.3,1.3,0,0,0-.49-1c-.09-.08-.29,0-.43,0a3,3,0,0,0-.51.24c.2-.34.17-.47-.12-.57a1.28,1.28,0,0,1-.46-.53l.53.15-.13-.3.26,0-.39-.39,0,0,.17.1-.34-1.08.06,0,.24.28.1-.19.27.47.3-.16.09.41c.34,0,.27.32.21.42-.15.28-.05.42.13.61a1.89,1.89,0,0,1,.21.52,1,1,0,0,0,.24.37l.16-.38,0,0a4.79,4.79,0,0,0-.06.92c0,.22.16.41.05.66a1,1,0,0,0-.05.4l.38-.31c-.16.63-.16.63-.48.93l.51-.28-.42,1c.14.24.06.35-.41.38a74.64,74.64,0,0,0-.84,14.34Z"/><path d="M158.82,38.42c-.25-1-.44-2-.67-3a.93.93,0,0,0-.23-.34.69.69,0,0,1-.17-.25l.35.28c0-.47-.09-1-.15-1.45,0-.2-.09-.39-.12-.58-.07-.45-.13-.9-.19-1.35,0-.22,0-.46-.22-.6s-.21-.08-.31,0a1,1,0,0,1-.2.11l0-.07.09-.12-.3-.41h.24l-.12-.6h.13l-.18-.4,0-.06.27.18.06-.09.17.21,0,0a.37.37,0,0,1,.06-.49.29.29,0,0,0,0-.22.89.89,0,0,0-.5-.57c-.07,0-.2,0-.29.07a2.55,2.55,0,0,0-.3.26c.08-.27,0-.35-.18-.37s-.28-.15-.4-.27h.38l-.14-.18.18,0-.33-.18,0,0,.13,0-.42-.67,0,0,.22.15,0-.15.26.27.17-.16.14.26c.23-.05.24.16.22.25s0,.28.19.38a1.19,1.19,0,0,1,.23.31.8.8,0,0,0,.23.21l0-.29h0a3.34,3.34,0,0,0,.12.63c.05.14.18.25.15.43a.68.68,0,0,0,0,.28l.2-.27c0,.45,0,.45-.16.71l.3-.28-.1.75c.13.15.1.23-.21.33a51.28,51.28,0,0,0,2,9.78Z"/><path d="M141.48,36.72c.05-.35.1-.69.15-1.06l-.21,0c0,.14,0,.28,0,.42s0,.42,0,.62Z"/><path d="M134.1,26.48c0,.13-.08.25-.11.38l.18,0c0-.11,0-.22,0-.33Z"/><path d="M143.15,31.82a16.49,16.49,0,0,0-.83,2.64,1.51,1.51,0,0,0,0,.3,11.48,11.48,0,0,1,.07,1.17,4.39,4.39,0,0,0,.39,1.37,10.14,10.14,0,0,1,.49-4.82h.07a.93.93,0,0,1,0,.24,7.76,7.76,0,0,0-.21,2.67.76.76,0,0,1,0,.15c-.06.36.22.59.4.88.14-1,.24-2,.42-3s.42-1.94.64-2.91l-.27.09s0,0,0,0c.39-.12.45-.45.56-.74l.1-.24A2.89,2.89,0,0,0,143.55,31l0,0,.61-.35a1,1,0,0,1-.32.25C143.43,31.1,143.3,31.47,143.15,31.82Z"/><path d="M145.22,30c.28-.35.69-.3,1.09-.33l-.45-1.21A3.11,3.11,0,0,0,145.22,30Z"/><path d="M141.63,38.69a.75.75,0,0,0,.18.3c.12-.22-.05-.42-.13-.63A1,1,0,0,1,141.63,38.69Z"/><path d="M147.66,39.74v.09h.06S147.7,39.77,147.66,39.74Z"/><polygon points="141.36 37.22 141.36 37.22 141.36 37.22 141.36 37.22"/><path d="M146.19,37.73a.77.77,0,0,0-.13,1C146.11,38.35,146.15,38.06,146.19,37.73Z"/><path d="M146,35c-.13.71-.23,1.43-.29,2.15a3.4,3.4,0,0,0,.17.88,2.07,2.07,0,0,0,.51-1.13c0-.4.16-.8.22-1.2a.79.79,0,0,1,0-.09,1.28,1.28,0,0,1-.14-.37,10.17,10.17,0,0,1-.1-2.13C146.21,33.71,146.07,34.34,146,35Z"/><path d="M146.63,37.27a.22.22,0,0,0,0-.14.88.88,0,0,0-.09.2c-.08.76-.17,1.52-.23,2.28a1.5,1.5,0,0,0,0,.29h.19a.08.08,0,0,0,0,0C146.56,39,146.59,38.13,146.63,37.27Z"/><path d="M146.93,37.27c0,.39-.06.79-.1,1.18h0c.08-.25.16-.51.23-.77A1.32,1.32,0,0,1,146.93,37.27Z"/><path d="M146.34,29.77l-.2.07.14.07L146,30l.17.1-.26,0c0,.23-.21.1-.32.18l.32.21-.11,0c.06.13,0,.41-.09.41s-.19-.06-.29-.1l-.18.19c-.29-.06-.19-.32-.27-.5a31.43,31.43,0,0,0-1,5.64h.15c.16,0,.2.06.21.19s.1.47.16.74c.18-.32.35-.61.49-.91,0-.06-.06-.17-.07-.28l.14.14a1.61,1.61,0,0,0,.59-1.09,13.6,13.6,0,0,1,1-3.46,1,1,0,0,0,0-.81C146.52,30.43,146.44,30.11,146.34,29.77Z"/><path d="M147.37,38s0,0,0-.05,0,0-.05,0L147,39.17l.1,0Z"/><path d="M135.25,21.42a7.5,7.5,0,0,0-.74.42l-1.66,1.24c-.08.06-.13.16-.21.23a.3.3,0,0,0-.07.33c.28,1,.56,1.94.83,2.91,0,.12,0,.27.08.41l.1,0,0-.07c.12-.3.21-.61.34-.9a2.26,2.26,0,0,0,.09-1.12c0-.5-.12-1-.18-1.5a.25.25,0,0,1,0-.18,18.22,18.22,0,0,1,.38,2l.3-.62a4.77,4.77,0,0,1,1-1.45.13.13,0,0,0,0-.11l-.33-1.45S135.28,21.47,135.25,21.42Z"/><path d="M111.75,29.15c-.11.32-.23.63-.32,1,.18.39.36.77.55,1.16s.32.65.49,1c-.21-1-.42-2-.63-3.09Z"/><path d="M108.42,40.23a1.26,1.26,0,0,0,.19,0c0-.17-.08-.3-.12-.43l-.08-.08h0C108.41,39.92,108.41,40.07,108.42,40.23Z"/><path d="M108.74,41.54v0h0Z"/><path d="M108.4,40.31c0,.18-.06.36.14.54,0-.13,0-.24.08-.34S108.59,40.28,108.4,40.31Z"/><path d="M108.32,41.59c0-.12,0-.23,0-.35s.07-.5-.19-.73c-.06.4-.12.76-.17,1.11Z"/><path d="M108.26,40.55v-.48h-.06C108.23,40.22,108,40.37,108.26,40.55Z"/><path d="M146.06,26.81l-.14.2c-.14-.18-.22-.52-.61-.27l.61,1.39.37-.18a.32.32,0,0,0,.06-.18,6.38,6.38,0,0,0-.15-.76C146.19,26.94,146.11,26.88,146.06,26.81Z"/><path d="M143.07,23.11c-.33-.53-.7-1.05-1.06-1.58,0,.26-.06.5-.09.74h0L142,22h0v1h0a.82.82,0,0,1,0,.22,1.42,1.42,0,0,0,0,.29l.06-.12h.06l-.1.68.09-.07h.05c0,.21-.07.42-.11.64l.07,0c0,1-.09,1.91-.09,2.86s0,1.91.06,2.87h.05l1.29-3.25h0c-.08.28-.15.55-.23.82a9.08,9.08,0,0,0-.22.9,9.32,9.32,0,0,1-.75,2.09,1.22,1.22,0,0,0-.09.42c0,.5,0,1,0,1.51a.18.18,0,0,0,0,.13c.09-.24.17-.49.28-.72.25-.48.52-1,.77-1.45a1.33,1.33,0,0,0,.18-.38,4.18,4.18,0,0,1,.38-1c.19-.39.3-.81.45-1.21l-.16-.1c.05-.25.1-.48.15-.71a1.74,1.74,0,0,0,.18.22c-.15-.19,0-.36,0-.55l.1.3v-.25l0,0a3.4,3.4,0,0,1,.26-.29c.16-.15.18-.33,0-.63C144.34,25.19,143.71,24.14,143.07,23.11Z"/><path d="M145,27.21a.69.69,0,0,1-.07.3l.16-.11,0,.11.28-.13-.21-.6C145,26.93,145,27,145,27.21Z"/><path d="M114.81,35.53h0l0,.39h.12Z"/><path d="M133.34,27c-.34,0-.67.1-1,.16h0l-.13,0-.14,0h-.08a1.28,1.28,0,0,0-.59.27v0c.42-1.28.72-2.58,1.12-3.87.09.32.2.65.28,1C133,25.39,133.15,26.18,133.34,27Z"/><path d="M146.54,37.09a1.7,1.7,0,0,0,.22-.79c0-.13,0-.26-.07-.39-.06.39-.11.77-.16,1.14C146.53,37.06,146.54,37.08,146.54,37.09Z"/><path d="M135.85,24c0-.29-.13-.57-.2-.92-.13.16-.23.27-.31.39a12.91,12.91,0,0,0-.94,2.12,1.67,1.67,0,0,0,0,.8c0,.13,0,.26,0,.39l.86-.18.9-.2c0-.16,0-.32,0-.48C136.09,25.27,136,24.63,135.85,24Z"/><path d="M146.41,28s-.08-.06-.12-.08h0c-.33.2-.28.44-.15.75.27.69.49,1.39.72,2.08,0-.2.1-.39.13-.59-.18-.6-.32-1.21-.48-1.82A2.19,2.19,0,0,0,146.41,28Z"/><path d="M114.42,34.06l.09.13h0V32.65c0-.06,0-.12,0-.18,0-.67-.08-1.34-.15-2-.06.32-.12.64-.19,1l-.33,1.49a.53.53,0,0,0,.11.49A5.74,5.74,0,0,1,114.42,34.06Z"/><path d="M140,21.82c.1-.57.2-1.15.31-1.72,0-.22,0-.27-.27-.33,0,.35-.09.69-.11,1A11.3,11.3,0,0,0,140,22C140,21.91,140,21.87,140,21.82Z"/><path d="M137,26.21h0l.44-.1a.14.14,0,0,1,0-.06s0,0,0,.06c.34-.09.67-.18,1-.24l.12,0c-.09-.89-.18-1.77-.21-2.66l.42,2.62.92-.14c0-.51,0-1,.06-1.52a1.15,1.15,0,0,0-.33-.91c-.3-.36-.58-.74-.87-1.11l-.69-.93c0,.12,0,.21-.06.3-.13.78-.27,1.55-.4,2.33-.1.57-.21,1.15-.3,1.72,0,.06,0,.13.06.19s-.11.08-.12.13S137,26.1,137,26.21Z"/><path d="M139.82,23.79c0,.62,0,1.24,0,1.86.35-.06.7-.13,1.05-.17s.58.09.57.58c0,.75,0,1.51,0,2.26,0,1.18.17,2.35.23,3.52a21.31,21.31,0,0,1-.14,3.09l.26.19c.12-.61.26-1.2.34-1.8a7.22,7.22,0,0,0,0-1.23c-.11-1.67-.12-3.34-.07-5,0-.25,0-.5,0-.76a1.82,1.82,0,0,0-.23-1,1.77,1.77,0,0,1-.12-.41l.06,0,.18.31h0a1,1,0,0,0-.11-.25c-.14-.23-.29-.44-.15-.72a.21.21,0,0,0,0-.11c-.05-.23-.09-.45-.14-.67a.08.08,0,0,1,0,0c0-.18,0-.36,0-.56l.21.32.05,0c0-.06-.07-.12-.1-.19a5.31,5.31,0,0,1-.2-.56c0-.05.05-.11.07-.17s0-.07,0-.11-.11-.28-.06-.32,0-.22,0-.32a2.52,2.52,0,0,1,0-.37s0-.08,0-.1c-.25-.24-.48-.48-.74-.69a3.2,3.2,0,0,0-.49-.24c-.09.52-.17,1-.26,1.54,0,.3-.11.6-.16.89a.57.57,0,0,0,0,.26.7.7,0,0,1-.1.68c0,.05,0,.2,0,.27a5.62,5.62,0,0,0,.44.53l-.05,0C140.16,24.15,140,24,139.82,23.79Z"/><path d="M141.75,37.59c-.07.38.17.7.24,1.1a.94.94,0,0,0,.3-.74c-.06-.47,0-1-.07-1.42,0-.21-.08-.41-.12-.62H142Z"/><path d="M141.73,35.32l-.24-.38c0,.14,0,.29,0,.44Z"/><path d="M106.52,39.62V39.2h-.06C106.33,39.33,106.44,39.48,106.52,39.62Z"/><path d="M106.42,38.06v.7h0v-.7Z"/><path d="M142.17,35.29c0,.16-.17.32,0,.5Z"/><path d="M114.39,36a1.84,1.84,0,0,0,.19-.92,2.82,2.82,0,0,0-.18-.61c-.16-.37-.34-.73-.52-1.1h-.07c0,.38-.06.75-.1,1.14H114v0l-.23.06v.2l.51,1A2.14,2.14,0,0,0,114.39,36Z"/><path d="M106.86,39.76a1.52,1.52,0,0,0,0,1.25A3.1,3.1,0,0,0,106.86,39.76Z"/><path d="M107.22,40.9h0a9.32,9.32,0,0,0,.65-.9,3.74,3.74,0,0,0,.17-.62,1.7,1.7,0,0,1-.28-1.13c0,.11-.07.23-.09.34s.06.08.07.1a.53.53,0,0,0-.13.19C107.49,39.55,107.36,40.23,107.22,40.9Z"/><path d="M113.37,31.79c-.05-.49-.09-1-.17-1.48-.12-.8-.26-1.6-.4-2.4,0-.26-.07-.53-.11-.84-.3.14-.57.26-.82.4s-.3.17-.21.49c0,.11.08.21.11.32s0,.21.08.34a1.8,1.8,0,0,1,.84-.66,1.83,1.83,0,0,0-.69.77.51.51,0,0,0,0,.32c.26,1.19.53,2.37.79,3.56,0,.09,0,.18.05.28l.33.65.33.62a3.13,3.13,0,0,0-.1-.44,1.64,1.64,0,0,1,0-.93A2.81,2.81,0,0,0,113.37,31.79Z"/><path d="M143.74,39.29h.09a6.77,6.77,0,0,0,.22-.77.92.92,0,0,0-.05-.36,3,3,0,0,0-.16-.48A11,11,0,0,0,143.74,39.29Z"/><path d="M144.71,37.93c.09.29.18.58.27.89.12-.17-.06-.79-.32-1.17A.87.87,0,0,1,144.71,37.93Z"/><path d="M145.53,35.74c-.39.36-.42.54-.13.92C145.44,36.34,145.48,36.05,145.53,35.74Z"/><path d="M144.3,38.38c0,.24.11.47.17.71l.15-.07a2.26,2.26,0,0,0-.25-.65Z"/><path d="M144.24,39.2a1,1,0,0,1,0-.17.93.93,0,0,0-.08.2Z"/><path d="M145.05,36.38l-.39.94a.09.09,0,0,0,0,.07l.55,1.06c0-.28,0-.52.07-.77a3.05,3.05,0,0,0,.06-.6,6.06,6.06,0,0,0-.19-.7Z"/><path d="M144.13,36.49a.87.87,0,0,0,.08,1.26c0-.07-.05-.14-.07-.22s0-.14,0-.22l.16,0a.58.58,0,0,0,0-.14Z"/><path d="M145,28.57a1.11,1.11,0,0,1-.16-.11c-.17-.19-.39-.17-.48.07s-.13.44-.22.65-.2.36-.28.55-.18.48-.28.76a7.86,7.86,0,0,1,.68-.58,6.31,6.31,0,0,1,.64-.31.46.46,0,0,0,.2-.16c.23-.35.45-.71.67-1.07a.26.26,0,0,0,0-.19c-.1-.24-.21-.47-.31-.68l-.29.19.12,0-.21.38.19.09C145.19,28.32,144.9,28.29,145,28.57Z"/><path d="M147.83,39.73c0-.21-.06-.42-.1-.68C147.61,39.48,147.64,39.66,147.83,39.73Z"/><path d="M143.16,36.08v1C143.54,36.57,143.55,36.73,143.16,36.08Z"/><path d="M145.76,38.62a1.67,1.67,0,0,0-.17,1.14l.35.1A3.17,3.17,0,0,0,145.76,38.62Z"/><path d="M142.45,37.09c0,.14,0,.29,0,.44a3.79,3.79,0,0,0,.07.45C142.78,37.66,142.48,37.38,142.45,37.09Z"/><path d="M143.09,38.07a1.85,1.85,0,0,0,.08.93l.06.31h.2v-2C143.31,37.57,143.18,37.82,143.09,38.07Z"/><path d="M105.65,40.25c.15.41.23.84.36,1.29.31-.68-.11-1.3-.08-1.95l-.09,0C105.55,39.77,105.55,40,105.65,40.25Z"/><path d="M114.46,36.14s0,.07.05.1.12-.17.06-.49C114.53,35.88,114.5,36,114.46,36.14Z"/><path d="M105.38,34.61c0-.23-.06-.48-.1-.72,0,1-.14,1.92-.25,2.87,0-.16.09-.31.13-.47A3.56,3.56,0,0,0,105.38,34.61Z"/><path d="M107.09,40.1c.09-.43.18-.84.28-1.25A1,1,0,0,0,107.09,40.1Z"/><path d="M107.82,40.67l0,0c-.15.29-.29.59-.44.91l.27.09h.06C107.72,41.3,107.77,41,107.82,40.67Z"/><path d="M115.25,27h0c-.07.33-.14.66-.22,1-.12.52-.26,1-.36,1.55a2.9,2.9,0,0,0,0,.66c0,.31,0,.63.05,1l.25-.7c.3-.77.61-1.54.92-2.31a.38.38,0,0,0,0-.43C115.58,27.54,115.42,27.27,115.25,27Z"/><path d="M110.52,28.33l.51,1.06c0,.08.12.15.17.23l0,.1.47-.88a.27.27,0,0,0,0-.12l-.25-1Z"/><path d="M129.67,27a4.38,4.38,0,0,1-.4.62c-.16.21-.18.27,0,.52l.4-.85c.09-.2.2-.39.29-.6a3,3,0,0,0,.07-.32H130C129.86,26.62,129.78,26.83,129.67,27Z"/><path d="M129.77,27.44c-.12.32-.24.65-.37,1a.23.23,0,0,0,0,.2,5.2,5.2,0,0,0,1-.37c-.11-.47-.21-.94-.32-1.42C129.94,27,129.85,27.24,129.77,27.44Z"/><path d="M128.49,29.36a.54.54,0,0,0,.41-.32,1.25,1.25,0,0,1,.08-.12c0-.09.07-.17.1-.26s.1-.26-.13-.74C128.8,28.41,128.64,28.89,128.49,29.36Z"/><path d="M116,28.17l-.11-.12c-.07.23-.14.44-.19.65-.12.47-.22,1-.36,1.43s-.32.86-.5,1.29a2,2,0,0,0-.19,1c0,.53,0,1.06,0,1.58a4.45,4.45,0,0,0,.08.81.88.88,0,0,0,.17.35c0,.07.14.09.24.15a5.62,5.62,0,0,1,.59-2.06,5.17,5.17,0,0,0-.11.54c-.06.56-.11,1.12-.14,1.67,0,.06.08.13.13.2l.41.51c.19-.39.38-.78.58-1.16.08-.15.19-.29.28-.43s-.12-.3-.16-.46a5.31,5.31,0,0,1-.38-1.63c0-.88,0-1.76,0-2.64a7.59,7.59,0,0,1,.06-1.07Z"/><path d="M105.9,32.53c-.12-.9-.24-1.81-.38-2.71-.06-.42-.14-.83-.23-1.24a2.55,2.55,0,0,0,0,.48c0,.18,0,.36.06.54,0,1,0,2,0,2.94.12.67.24,1.31.37,2,.11-.35.22-.65.32-1a.17.17,0,0,0,0-.1C106,33.16,105.94,32.85,105.9,32.53Z"/><path d="M105,39.89a.61.61,0,0,0,0-.19c0-.38-.07-.76-.1-1.14,0-.22,0-.45,0-.68,0,0,0,0,0,0a.24.24,0,0,0,0,.08,2.78,2.78,0,0,0-.08,1.8l.16.33Z"/><path d="M130.48,25.07a.86.86,0,0,0-.14.74l.13-.17a5.09,5.09,0,0,0,.06,1.7,3.48,3.48,0,0,0,.13.69c.08-.05.16-.12.24-.18a.3.3,0,0,1,0-.13A11.73,11.73,0,0,0,130.48,25.07Z"/><path d="M106.5,35.9a.3.3,0,0,0,0,.13s0-.09,0-.17S106.5,35.88,106.5,35.9Zm.33-.91.2.52,0,0C107,35.32,106.92,35.16,106.83,35Zm.26-.89,0,1.33s0,0,0-.06C107.15,35,107.13,34.52,107.09,34.1Zm.8-.22,0,1.11h0C108,34.61,107.92,34.25,107.89,33.88ZM108,36v0c0-.2,0-.42,0-.62a2.85,2.85,0,0,0,0-.29l0,0-.1,0a.67.67,0,0,0-.16.12h0a1.69,1.69,0,0,0-.46.42.07.07,0,0,0,0,0h0v0a4.4,4.4,0,0,0-.38.5,1.12,1.12,0,0,0-.18.79,2.18,2.18,0,0,1,0,.29c0,.51.07,1,.12,1.51a.38.38,0,0,1,.1,0l.07,0a1.77,1.77,0,0,0,.3-.06l.07,0h.06a.25.25,0,0,0,.12-.11c.08-.26.15-.51.22-.78h0v0a.13.13,0,0,0,0-.07h0v0h0s0-.06,0-.08,0,0,0,0,0-.07-.06-.09l0,0a1.13,1.13,0,0,0-.13-.2l-.17-.25h0s0,0,0,0l-.07-.07,0,0,0,0h0a.2.2,0,0,1,.07.06h0l.23.25.19.21v0l0,0,.06.06a.17.17,0,0,0,.06.06s0-.06,0-.09.1-.27.14-.39,0,0,0,0a3,3,0,0,0,.06-.32,2.21,2.21,0,0,0,0-.25.43.43,0,0,0,0-.11A2.58,2.58,0,0,0,108,36Zm2.17-31.17-3.61,6.58c-.16,1.15-.31,2.28-.46,3.42,0,.26,0,.53,0,.79.17-1.19.33-2.39.5-3.59l4.08-7.42Zm.25,23.64a2,2,0,0,0-.79,1c-.24.79-.48,1.56-.73,2.35a2.41,2.41,0,0,1-.08.25.23.23,0,0,1,0,.11s0,0,0,.06,0,0,0,0c-.07.24-.16.47-.25.72,0-.26.08-.51.14-.75,0-.06,0-.14.06-.21s.06-.22.08-.32,0,0,0,0a.5.5,0,0,1,0-.12,2.27,2.27,0,0,1,.06-.25,1.59,1.59,0,0,1,.06-.3l0,0a.87.87,0,0,1-.13.15l-.06-.09c0,.09-.08.16-.13.25l-.17-.06a1.52,1.52,0,0,1,0,.21c-.19,0-.13.17-.09.22s.06.2,0,.3a.73.73,0,0,0-.09.26.4.4,0,0,1-.11.2l-.12-.17h0a3.13,3.13,0,0,1,.1.44c0,.1-.07.22,0,.32a.47.47,0,0,1,.06.19l-.23-.12c.13.29.13.29.33.42l-.31-.11c.09.15.2.3.31.48-.06.13,0,.17.27.16a3.82,3.82,0,0,0,.13.36.32.32,0,0,1,0-.14c0-.07,0-.14,0-.21h0c.08-.23.11-.48.2-.69v0c.31-.69.63-1.38,1-2.05s.62-1.12.94-1.66c0,0,0,0,0,0Zm6.19-1.1s-.06.06-.1.08l-.25-.31a.65.65,0,0,0,0,.15l-.23-.17,0,0,.39.73-.14-.05,0,0,.34.23h-.2a.77.77,0,0,1,.13.2h-.1l.19.27a6.06,6.06,0,0,1,.13-.67,0,0,0,0,1,0,0C116.61,27.67,116.6,27.5,116.58,27.33ZM131,27a.07.07,0,0,1,0,.05l0-.05Zm0,.18a.93.93,0,0,1,0,.23,3.19,3.19,0,0,0,.26-.26Zm0-.38.39-.74,0,0-.22.17a.48.48,0,0,0,0-.14l-.22.26c0,.2.07.41.09.6a1.73,1.73,0,0,0,.2-.14s0,0,0,0A.42.42,0,0,0,131,26.8Zm12.81-3.87c-.05-.21-.1-.42-.14-.62a5.84,5.84,0,0,0-.32,1c.09.13.17.25.27.38s.36.53.53.82C144.05,24,143.94,23.47,143.84,22.93Zm-.06-.86,0,.11a1.26,1.26,0,0,1,.12.29l.44-1.85A13.25,13.25,0,0,0,143.78,22.07ZM146.27,25l-.06.05h.15Zm.51-.69a.16.16,0,0,1,0,.07.5.5,0,0,0,.13.12A1.27,1.27,0,0,0,146.78,24.27Zm.66,1.3a1.76,1.76,0,0,0-.6-.94.58.58,0,0,1-.1-.12.77.77,0,0,1,0,.15l-.31-.42c0,.67,0,.67.22,1.06l-.27-.27-.15.12-.09.08.11,0h.07l.09.14,0,.14a.23.23,0,0,1-.07.11c-.07.06-.16.06-.28,0a.4.4,0,0,0-.11,0c0,.08.08.16.05.18a1.14,1.14,0,0,1-.25.18s-.07,0-.09,0a1.68,1.68,0,0,0-.24.29.54.54,0,0,0-.07.45c.17-.09.3-.2.45-.26s.25-.05.26-.22.11-.12.17-.19a.24.24,0,0,0,.05.09.2.2,0,0,0,.07-.06l0,0a.18.18,0,0,0,.09-.06l.07.14.49,0a.08.08,0,0,1,0,0l-.31.11s0,0,.05,0l-.21.12,0,0h.17v0h0l-.22,0a.42.42,0,0,1,0,.17l.24.08v0l-.24,0c.06.17.11.33.16.49v0c.05.12.08.23.12.34.16.49.33,1,.49,1.46l.06-.39h0s0-.08,0-.11v0h0l.06-.35h0a6.21,6.21,0,0,1,.31-1.47.63.63,0,0,1,.07-.22c0-.06.06-.07.08-.12C147.61,26.15,147.53,25.85,147.44,25.57Zm2.1-3.67-.07,0a.21.21,0,0,0,0,.07l.07,0S149.54,21.91,149.54,21.9Zm.58,2.53c0-.17-.05-.34-.07-.51s-.08-.17-.11-.25-.08-.4-.14-.59l-.17-.51s0-.05,0-.07l-.17-.48a.16.16,0,0,0,0-.09l0,0a5.12,5.12,0,0,0-.21-.59c-.1-.08-.17-.16-.26-.24-.07.11-.15.26-.21.37-.37-.08-.39.23-.36.36a.39.39,0,0,1-.2.5l.6.79,1.51,2C150.22,24.91,150.16,24.67,150.12,24.43Zm-.69-2.62c.2-.29.39-.56.56-.83l0-.06-.34.21a1.24,1.24,0,0,1,0-.22c-.12.1-.24.22-.35.33a.08.08,0,0,1,0,.05Zm.07.18.07,0s0-.05,0-.06l-.07,0A.21.21,0,0,0,149.5,22Zm.17.51h0Zm.29-1.58-.34.21a1.24,1.24,0,0,1,0-.22c-.12.1-.24.22-.35.33a.08.08,0,0,1,0,.05l.18.52c.2-.29.39-.56.56-.83Zm.2,4.59c-.38-.52-.73-1-1.07-1.58-.12-.18-.23-.35-.33-.53l-.36-.61c-.09-.16-.2-.32-.3-.47l-.06,0c-.15.09-.25.3-.37.45a.88.88,0,0,1-.35.29l-.06-.42h0a5.69,5.69,0,0,1-.2.93,1.82,1.82,0,0,1-.15.23c.22.07.18.24.22.38s.09.37.15.55c0,0,0,0,0,.05s0,0,0,0c.06.17.13.33.19.5l.32,1a.51.51,0,0,1,.23-.12l.13,0,.32,0a5.42,5.42,0,0,0,.58-.06,4.23,4.23,0,0,1,.05-.5,1.93,1.93,0,0,1,0-.24,1.41,1.41,0,0,0,0,.21c0,.17,0,.34,0,.52a.5.5,0,0,1,.13,0h.06a6.58,6.58,0,0,0,.94-.42Z"/><path d="M105.18,39c.16-.42.34-.85.46-1.28a2.47,2.47,0,0,0,0-.66c-.13,0-.21,0-.24.13-.09.39-.21.77-.28,1.16a2.44,2.44,0,0,0,.07.65Z"/><path d="M118.86,18.87c.62,1.47,1.23,2.95,1.85,4.43l.07,0a35.77,35.77,0,0,0-1.86-4.43Z"/><path d="M105.57,36.5h0c0,.16-.07.32-.11.49h.2Z"/><path d="M105.55,39.41c.34-.13.33-.1.17-.7C105.67,38.94,105.61,39.17,105.55,39.41Z"/><path d="M105.42,41a1.27,1.27,0,0,0,.34.41,5.52,5.52,0,0,0-.3-1.31A5.43,5.43,0,0,0,105.42,41Z"/><path d="M106,36.91a.7.7,0,0,0,.19-.49c0-.61,0-1.23-.07-1.89A3.49,3.49,0,0,0,106,36.91Z"/><path d="M117.25,37.47l-.17.24.17.22Z"/><path d="M117.59,38.05a.31.31,0,0,0,0,.5Z"/><path d="M117,38.54a.44.44,0,0,0,0-.73C116.76,38.06,117,38.28,117,38.54Z"/><path d="M116.92,39.78a5,5,0,0,0-.18,1h0A.89.89,0,0,0,116.92,39.78Z"/><path d="M115.21,37.71a5.87,5.87,0,0,0-.28-1.78.29.29,0,0,0-.13.3,3,3,0,0,1,0,.67h0c.13.27.26.54.38.81Z"/><path d="M116.65,38.53a2.37,2.37,0,0,0-.28.89C116.8,39.11,116.81,39.09,116.65,38.53Z"/><path d="M116.49,37c.14.2.1.53.49.58,0-.07.12-.14.2-.24l-.64-.4Z"/><path d="M114.65,36.53v-.24a.65.65,0,0,0-.08.09Z"/><path d="M115.53,35.69a3.72,3.72,0,0,0,.18,1.37C116,36.4,116,36.13,115.53,35.69Z"/><path d="M116.13,36.86c-.09.4-.38.78-.11,1.21a.53.53,0,0,0,.11.09c-.15.22.12.43.12.66.12-.28.4-.5.27-.85s-.22-.74-.33-1.11Z"/><path d="M115,35.23l.17.37C115.22,35.41,115.23,35.29,115,35.23Z"/><path d="M117.36,39.34h0l.12-.57-.12,0C117.39,38.94,117.37,39.14,117.36,39.34Z"/><path d="M118.45,38.11l0-.12,0-.06,0,.17Z"/><path d="M118.58,38.69a.46.46,0,0,0,0,.28c.07.18.15.35.23.51a1.22,1.22,0,0,0,.22-.73,5.58,5.58,0,0,1-.39-.46A2.6,2.6,0,0,0,118.58,38.69Z"/><path d="M117.87,37.32a.32.32,0,0,0,.13-.18l-.15-.3C117.71,36.92,117.74,37,117.87,37.32Z"/><path d="M116.28,36.44c0,.14.19.43.33.48l.64.26a2.06,2.06,0,0,0-.51-2C116.58,35.64,116.42,36,116.28,36.44Z"/><path d="M116.93,35.34a3.61,3.61,0,0,1,.25.3l0,0c-.07-.27-.15-.54-.23-.83C116.77,35,116.76,35.15,116.93,35.34Z"/><path d="M119.33,40.05c-.16.29-.13.43,0,.88h.07Q119.39,40.5,119.33,40.05Z"/><path d="M118.45,39.45l-.08,0,.31,1.22C118.83,40.21,118.54,39.85,118.45,39.45Z"/><path d="M117.74,36.81s0,0,.07-.05c-.13-.28-.25-.57-.36-.86a6,6,0,0,0,.22.93Z"/><path d="M120,40.21h0l0-.08Z"/><path d="M110.62,4.57,106.54,12c-.17,1.2-.33,2.4-.5,3.59-.43,3.22-.88,6.43-1.29,9.66-.16,1.36-.06,2.76-.29,4.12a21.12,21.12,0,0,1-1,3.46c0,.13-.1.28-.14.42h0a1.89,1.89,0,0,0-.09.21c-.29.82-.61,1.64-.93,2.5,0,.15-.11.31-.17.46l-.19-.24a3,3,0,0,1-.27-.38h0a.58.58,0,0,1-.11-.15,1.34,1.34,0,0,1-.06-.12A5.23,5.23,0,0,1,101,32a16.23,16.23,0,0,1,.94-3h0c.08-.24.18-.46.26-.7s.1-.25.15-.39a0,0,0,0,1,0,0s0,0,0-.06A18.46,18.46,0,0,0,103.7,24c.63-4.26,1-8.56,1.57-12.8a9.34,9.34,0,0,1,4.87-6.4Z"/><path d="M168.47,8.49a8.88,8.88,0,0,0-.73-.78c-.16-.15-.36-.25-.53-.39-.88-.81-1.76-1.64-2.66-2.44a3.76,3.76,0,0,1-.89-1,3.52,3.52,0,0,0-.58-.83c-.47-.44-1-.83-1.48-1.24s-.89-.47-.5-1.25c0,0,0,0,0-.06.07-.36-.17-.58-.52-.44a2.84,2.84,0,0,0-.68.42c-.15.1-.24.12-.3-.08a.44.44,0,0,0-.73-.24L157.83,1a3.64,3.64,0,0,1-1.07.78c-.58.18-1.12.43-1.67.66-.3.11-.58.26-.88.34-.65.19-1.32.34-2,.52-.2.06-.37.19-.57.26l-3,.92a7,7,0,0,1-1.07.28c-.84.11-1.66.19-2.5.28L139,5.71c-1.4.16-2.81.35-4.22.47a62.54,62.54,0,0,1-6.27.33l-1.15-.07c-1-.09-1.93-.21-2.89-.31-.72-.08-1.44-.12-2.14-.24-1.06-.18-2.12-.42-3.18-.61s-2.24-.41-3.37-.58-2.34-.32-3.5-.47a2.71,2.71,0,0,0-1.64.25,4.35,4.35,0,0,1-.52.29v0l.48-.22L106.54,12c-.17,1.2-.33,2.4-.5,3.59,0,1.91-.08,3.8-.14,5.69,0,.83-.08,1.66-.16,2.48,0,.41-.25.82-.26,1.22,0,.7.11,1.41.15,2.11a.68.68,0,0,1-.07.4,2.94,2.94,0,0,0-.21.61,25.28,25.28,0,0,1,.89,4.82l0-.06c0-.79,0-1.59,0-2.39,0,0,0,0,0,0a8.29,8.29,0,0,1-.3-2.17,31.56,31.56,0,0,1,.16-4,4,4,0,0,1,.12-.62,33.46,33.46,0,0,0,.1,5.39.25.25,0,0,0,0-.15c0-.25,0-.51,0-.76,0-.64.08-1.28.13-1.93,0-.15.09-.3-.12-.4,0,0-.06-.11-.07-.17,0-.23,0-.47,0-.71a4.41,4.41,0,0,1,0-.73c0-.31.15-.6.18-.91a1.36,1.36,0,0,1,.25-.72c.17,0,.23.06.24.19s0,.16,0,.24l.09.77c0,.14-.07.28,0,.4s0,.43,0,.64a4.14,4.14,0,0,1,0,.78c0,.1-.09.26-.17.28a.21.21,0,0,0-.19.24c0,.41-.06.83-.09,1.24,0,.71-.09,1.43-.12,2.16,0,.17,0,.35,0,.52a1.46,1.46,0,0,1,0,.42c0,.16-.08.32-.09.48s0,.41,0,.61l0,.94a6.9,6.9,0,0,1,1.45-2.25.24.24,0,0,1,0,.12,7.61,7.61,0,0,0-.54.85c-.25.54-.46,1.1-.67,1.66a2.46,2.46,0,0,0-.19.73c0,.43,0,.87,0,1.3s0,.67.07,1c0,0,0,0,0,0s0,.14,0,.17v.07a4.16,4.16,0,0,1,.51-.59l-.2-.52c.09.17.16.33.23.5a.13.13,0,0,1,.07-.06l0-1.33c0,.42.06.85.08,1.27a3.23,3.23,0,0,1,.44-.27,1,1,0,0,1,.31-.11l0-1.11c0,.37.06.73.07,1.1a.88.88,0,0,1,.27-.06L108,35a2.85,2.85,0,0,1,0,.29c0,.2,0,.42,0,.62v0a2.58,2.58,0,0,1,.13.31c.15-.64.3-1.26.49-1.89a3.82,3.82,0,0,1-.13-.36c-.27,0-.33,0-.27-.16-.11-.18-.22-.33-.31-.48l.31.11c-.2-.13-.2-.13-.33-.42l.23.12A.47.47,0,0,0,108,33c-.08-.1,0-.22,0-.32a3.13,3.13,0,0,0-.1-.44h0l.12.17a.4.4,0,0,0,.11-.2.73.73,0,0,1,.09-.26c.08-.1.14-.18,0-.3s-.1-.19.09-.22a1.52,1.52,0,0,0,0-.21l.17.06c0-.09.09-.16.13-.25l.06.09a.87.87,0,0,0,.13-.15l0,0c0,.1,0,.2,0,.3a11.49,11.49,0,0,1,.67-2.11,1.67,1.67,0,0,1,.65-.86.22.22,0,0,0,.07-.2c-.07-.22-.18-.44-.27-.67l-.29-.7.07,0c.24.48.46.95.69,1.42.31-.2.62-.4.91-.62a.15.15,0,0,0,0-.13,5.3,5.3,0,0,0-.28-.88c-.18-.4-.45-.77-.6-1.17-.49-1.26-.93-2.52-1.39-3.78-.18-.5-.34-1-.51-1.53a1,1,0,0,1,0-.17l2.15,5.24h.06a.57.57,0,0,0,0-.13c-.07-.26-.16-.51-.23-.77-.21-.7-.41-1.4-.62-2.09,0-.11,0-.25-.24-.24a.17.17,0,0,1-.11-.1,4.66,4.66,0,0,1-.3-.47c0-.09,0-.19-.07-.28a3.39,3.39,0,0,1-.24-.55c-.08-.22-.11-.46-.17-.69a1.56,1.56,0,0,0-.11-.41,1.32,1.32,0,0,1-.09-.84.64.64,0,0,1,.21.07c.11.15.2.31.3.47s0,.12.08.18a2,2,0,0,1,.33.68c0,.06.06.1.08.15a1.39,1.39,0,0,1,.11.21c.07.18.11.38.17.57s.17.56.24.84a.09.09,0,0,1,0,.1c-.19.06-.13.19-.09.3.3,1,.62,2.06.93,3.08a5.54,5.54,0,0,0,.27.78c.09.18.22.34.12.56a.13.13,0,0,0,0,.12c.07.25.14.5.23.74l1.09-.59c-.13-.69-.26-1.38-.4-2.07q-.25-1.34-.57-2.67c-.09-.37-.24-.73-.36-1.11s-.3-1-.46-1.44c-.14,0-.23,0-.28,0s0-.14,0-.17-.13-.14-.19-.22a.91.91,0,0,1-.14-.21c.15-.15,0-.25-.07-.39l.29.15a1,1,0,0,1-.08-.22c0-.12,0-.26,0-.38-.09-.3-.2-.59-.3-.89-.29.13-.46-.07-.68-.2.4,0,.4,0,.41-.07-.2.07-.28,0-.34-.13s-.12-.21-.19-.35l.29.15,0-.05-.23-.27.11,0-.21-.45.2.06-.13-.22c.26-.06.3-.05.43.17a.64.64,0,0,1,.06-.1c0,.1,0,.18,0,.26a.31.31,0,0,0,.12-.05v.23l.11-.12c0,.2.1,0,.13,0a1.12,1.12,0,0,0,.09.22c.07.16,0,.28-.16.29s0,0-.09.05c.2.06.26.23.16.37a.19.19,0,0,0-.07.14.86.86,0,0,0,.28.69.28.28,0,0,1,.06-.08c.07-.18.14-.37.2-.55s0-.1,0-.16a1.8,1.8,0,0,0-.06-.22c.21,0,.06-.2.13-.27a.89.89,0,0,0,.19.07,1.74,1.74,0,0,0,.15-.26l0,.09a1.93,1.93,0,0,0,.17-.2c0,.22-.07.41-.1.6a.24.24,0,0,0,.1-.06s0,0,0,0l-.16.19.1,0c0,.05,0,.09-.06.16l.33-.14c-.1.15-.12.34-.34.37,0,0,0,.09,0,.13s0,.06.08.12l-.24-.05c-.26-.1-.37,0-.47.2a1.07,1.07,0,0,0-.07.19.25.25,0,0,0,.17.35c.14,0,.14.11.14.2s0,.07,0,.15a1.16,1.16,0,0,0,.07-.24l.08,0,.18-.24a1,1,0,0,1,0,.12,1.93,1.93,0,0,1,0,.24l.13,0c0,.32.08.42.26.39,0,.13,0,.28,0,.46h-.09c-.27-.05-.4.06-.33.31a4.23,4.23,0,0,0,.25.64c.17.43.1.9.35,1.32a3.81,3.81,0,0,1,.25.72l.16-.24c0,.1-.05.21-.07.32a.34.34,0,0,0,0,.14c.19.85.41,1.69.57,2.54s.27,1.41.39,2.11v0h0c0,.19.06.38.1.58.19,1.11.35,2.23.52,3.35,0,.2,0,.41.06.6.21-.83.4-1.67.65-2.5a7.58,7.58,0,0,0,.29-2.32,1.55,1.55,0,0,0-.23-.88.54.54,0,0,1-.08-.38c.08-.19,0-.34-.07-.5a2.19,2.19,0,0,1,0-.26l.18.33h.06a3.24,3.24,0,0,1-.33-1.71c.08.11.14.2.21.28a.88.88,0,0,0-.08-.26c-.06-.19-.12-.37-.16-.55s0-.14,0-.2c0-.25,0-.5,0-.75a4.38,4.38,0,0,1,.12-.61h.07a3.54,3.54,0,0,1,.07.47,3.57,3.57,0,0,1,0,.47h0c0-.08.06-.15.1-.25a3,3,0,0,1,.15.61,3.16,3.16,0,0,1,0,.92l.08,0c0,.19-.06.36-.08.53h0l.07-.13h0c0,.23,0,.46-.09.73l.06-.12h0c0,1.08-.07,2.15-.09,3.23a1.11,1.11,0,0,0,.07-.16,7,7,0,0,1,.27-.89c0-.1.19-.18.3-.22s.16.09.2.15c.19.28.37.56.54.86l0-.06v0l0,0a.1.1,0,0,1,0,.06,3.45,3.45,0,0,0,.14.34l.17.24h.1a.77.77,0,0,0-.13-.2h.2l-.34-.23,0,0,.14.05-.39-.73,0,0,.23.17a.65.65,0,0,1,0-.15l.25.31s.06-.06.1-.08a.78.78,0,0,0,0-.22l.52-1.51a3.79,3.79,0,0,0,0-.89,3.58,3.58,0,0,1,0-.73c0-.21.16-.34.37-.27.51.15,1.06.19,1.58.29-.11-.16-.21-.33-.33-.49-.54-.79-1.09-1.59-1.64-2.37l-.55-.77c.11.1.22.2.32.31l.8,1.11c.29.39.6.78.89,1.18.18.22.35.46.51.69a7.42,7.42,0,0,0-.18-.87c-.16-.63-.34-1.25-.5-1.88-.06-.22-.13-.42-.2-.62a5.12,5.12,0,0,1,.27.52c.25.58.52,1.16.72,1.76a5.81,5.81,0,0,1,.27,1.33,2,2,0,0,0,.06.23,2.7,2.7,0,0,1,.4.14l.7.37a12.64,12.64,0,0,0-1-2.26c-.41-.75-.89-1.47-1.34-2.2l-.14-.11a.75.75,0,0,1-.06-.13l-.4-.64a3.07,3.07,0,0,0-.35-.28.76.76,0,0,1-.35-.36,1.12,1.12,0,0,0-.23-.39c-.2-.21-.44-.43-.66-.63-.59-.56-1.19-1.1-1.79-1.65-.13-.12-.27-.23-.41-.34a18.75,18.75,0,0,1,2.54,2.15A16,16,0,0,0,112,13.69l.13,0c.37.23.76.44,1.12.69a16.91,16.91,0,0,1,3.15,2.82,12.38,12.38,0,0,1,1.27,2s.06,0,.07,0c.52.74,1.06,1.48,1.56,2.23a12.08,12.08,0,0,1,.63,1.18q.45.9.84,1.83c0,.06,0,.14.08.21s.27.2.41.3a.11.11,0,0,0,0-.06c-.1-.29-.25-.57-.35-.85-.3-.74-.58-1.47-.86-2.21s-.52-1.32-.79-2a1.73,1.73,0,0,0-.61-.79c-.13-.08-.2-.24-.3-.36l0,0,.29.21c-.19-.27-.58-.38-.65-.75a2.23,2.23,0,0,0,.3.2l0,0a3.7,3.7,0,0,1-1.09-1.4l.32.17s0,0,0,0-.13-.09-.17-.14-.39-.28-.46-.46a2,2,0,0,0-.27-.45s0-.1,0-.17c-.3-.19-.28-.55-.43-.85a1.56,1.56,0,0,1,.59.78l0-.23s0,0,.07,0c.1.22.21.42.32.63a1.57,1.57,0,0,1,0-.23h.06c.16.32.33.64.48.93l0-.07.21.57h0c0-.06,0-.11,0-.17a.28.28,0,0,1,.12.12,1.36,1.36,0,0,0,.28.53,3.79,3.79,0,0,1,.57.79,30.89,30.89,0,0,1,1.62,3.26c.12.26.22.52.34.8h0V20.23c.06.45.11,1,.2,1.48a7.34,7.34,0,0,1,.15,1.81.9.9,0,0,0,0,.36c.15.53.31,1.06.47,1.6l.09.07a2.88,2.88,0,0,0,.67.47,1.29,1.29,0,0,0,0-.19,2,2,0,0,1,0-.24h0c0,.1,0,.22.07.33l.06,0c0,.08,0,.16,0,.24l.17.09c.6.33,1.25.59,1.85.93.29.17.55.4.84.61a.76.76,0,0,1,.08-.36.2.2,0,0,0,0-.11.94.94,0,0,1,.06-.55,5,5,0,0,1,.13-.67c0-.13,0-.32.31-.26a4.67,4.67,0,0,1,.13.67c0,.24,0,.46,0,.69s0,.4,0,.6,0,.32-.07.48l.14.1c0-.28,0-.56.07-.85s0-.33,0-.49h.06c0,.49,0,1,0,1.46a3.39,3.39,0,0,1,.31.34s0,0,0,0c0-.15,0-.3-.06-.44a5.14,5.14,0,0,1,.2.55,1.48,1.48,0,0,0,1.21.47l.1,0c.16-.5.34-1,.49-1.5,0-.06,0-.14-.06-.2l-.06-.19s0-.08,0-.13c-.15-.4-.3-.81-.46-1.22s-.32-.71-.43-1.07a.81.81,0,0,0-.43-.51,7.69,7.69,0,0,1-.69-.39s0,0,0,0l1,.5a6,6,0,0,1-.25-.69,2.39,2.39,0,0,0-.41-.92,1.32,1.32,0,0,1-.15-.29c-.09-.24-.17-.48-.27-.71a.25.25,0,0,0-.29-.18c-.07,0-.12.11-.19.14a.34.34,0,0,1-.17.05c0-.22-.16-.2-.28-.28l0,0,.17-.08-.2-.39h.11a3.63,3.63,0,0,1-.28-.27l0,0,.29.06s0,0,0-.09l.19.12a.27.27,0,0,1-.06-.42.24.24,0,0,0-.07-.19,3.11,3.11,0,0,0-.41-.2.25.25,0,0,0-.37.16.52.52,0,0,1-.12.18l-.07.07c.06-.28,0-.25-.2-.22a1.13,1.13,0,0,1-.46-.05l.37-.13a.53.53,0,0,1-.15-.08l.07-.07-.29,0a.54.54,0,0,0,.13-.06l-.51-.32.25,0a.41.41,0,0,0,0-.09l.3.07a1.07,1.07,0,0,1,.09-.19,1.4,1.4,0,0,0,.2.16l0-.06a.93.93,0,0,1,.16.18s0,.11.08.13c.22.11.44.19.66.28a.87.87,0,0,0-.37-.73s-.07,0-.1,0a1.28,1.28,0,0,1-.22-.17s0-.1,0-.15c-.3,0-.3,0-.45-.12l.12,0-.2-.1v0h.13a.46.46,0,0,0-.08-.13.74.74,0,0,1,.19,0s0,0,0,0l-.19-.14s.07,0,.14-.07l-.22-.11a.07.07,0,0,1,0-.05h.08c0-.15,0-.31,0-.47l.07,0,.25.3s0-.08.07-.16c0,.1,0,.18,0,.27l.08-.08c0,.11,0,.22.07.32h0s0-.09,0-.14h0c0,.1,0,.22,0,.33h.06c0-.08.07-.15.13-.27.08.19.15.36.23.53l.1-.11a.6.6,0,0,1-.29.62l.2.36a2.91,2.91,0,0,0,.23.42c.06.1.19.14.25.25a2.3,2.3,0,0,1,.12.37,2.22,2.22,0,0,0,.1-.32h0a2.66,2.66,0,0,0,0,.28s0,0,.07-.06l0,0c0,.09-.08.2-.12.29l0,0c.06-.09.11-.18.16-.27,0,.17.06.35.11.58.14.08.14.1-.08.28.74,1.77,1.49,3.56,2.25,5.34.08-.18.17-.35.24-.55s.14-.4.23-.61l.06-.07.16-.26a.58.58,0,0,0,.05-.14c0-.12.14-.26.11-.37-.08-.35-.2-.7-.31-1s-.27-.63-.41-1l-.39-.53a.12.12,0,0,1,.07-.05l.41.5a7.36,7.36,0,0,1,.94,1.83c0-.07,0-.14.07-.16a.36.36,0,0,0,.19-.48c-.15-.53-.33-1.05-.48-1.58a1.09,1.09,0,0,1,0-.25s-.06,0-.07,0c-.12-.3-.25-.59-.38-.9a1.83,1.83,0,0,0-.47-.83,15.48,15.48,0,0,1-1.18-1.11c-.52-.5-1-1-1.52-1.55l-.21-.2,0,0A29.15,29.15,0,0,1,128.71,20a3.83,3.83,0,0,0-.24-.59c-.3-.56-.57-1.14-.91-1.67s-.8-1.14-1.22-1.7a4.6,4.6,0,0,0-1-1.09c-.07-.06-.18-.17-.15-.23s-.1-.17-.17-.22-.29-.21-.29-.32-.1-.18-.18-.26l-.33-.29.21,0-.47-.38,0,0,.2.1,0,0A4,4,0,0,1,122.86,12l.26.14c-.28-.25-.63-.44-.75-.82q.38.23.72.48a1.43,1.43,0,0,1,.16.24l0,0s0-.06,0-.11a7,7,0,0,0,.61.61c.14.09.19.3.27.47s.07.17.11.26h0a2.38,2.38,0,0,1-.09-.38,3.76,3.76,0,0,1,1.09,1.65l.07,0c0-.1-.07-.22-.12-.36a.93.93,0,0,1,.36.68,1.42,1.42,0,0,0,.1.29h0c0-.11,0-.24-.09-.4,0,.06.09.07.1.11a3.48,3.48,0,0,0,.26.63,15.12,15.12,0,0,0,.89,1.36,19.89,19.89,0,0,1,1.61,2.55,16.84,16.84,0,0,1,1.16,2.78,1.57,1.57,0,0,1,0,.23c0,.05.1.08.11.13.19.53.36,1.09.55,1.62,0,.06.06.1.1.16s.08.1.09.17c0,.27,0,.56.08.83l.18,1.06.22-.26a.48.48,0,0,1,0,.14l.22-.17,0,0-.39.74a.42.42,0,0,1,.14-.06s0,0,0,0a1.73,1.73,0,0,1-.2.14.11.11,0,0,1,0,.09h0l0,.05h0a.6.6,0,0,1,0,.12l.3,0a3.19,3.19,0,0,1-.26.26,2.51,2.51,0,0,1,0,.27c.06-.06.14-.08.19-.15l0,0h0v0a4.94,4.94,0,0,1,.1-.53c.15-.69.28-1.39.44-2.09.11-.44.27-.87.41-1.31,0-.05,0-.13,0-.16a.55.55,0,0,1-.14-.47,1,1,0,0,0-.08-.38c-.2-.48-.42-1-.63-1.44a1.17,1.17,0,0,1,0-.26L132,22a19.76,19.76,0,0,0-2-5.18,7.66,7.66,0,0,1,1,1.67A13.84,13.84,0,0,1,132.51,23a25.1,25.1,0,0,1,2.68-1.94,34.65,34.65,0,0,0-2.31-7.26c-.27.05-.33,0-.28-.13l-.38-.48.34.09c-.22-.12-.22-.12-.4-.42a1.49,1.49,0,0,0,.26.1.77.77,0,0,0-.08-.19c-.1-.11,0-.23-.05-.34a3.68,3.68,0,0,0-.15-.47l-.28-.44c-.2.09-.35,0-.65-.19.29,0,.37,0,.4-.09-.45.16-.4-.23-.53-.38h.35c.12,0,.24,0,.35.06s0,0,0-.06c-.24-.07-.55,0-.69-.26l.12,0c0-.07-.12-.13-.15-.21a.68.68,0,0,1-.07-.23.9.9,0,0,1,.16,0c-.15-.17-.15-.17-.06-.35l.37.27a.36.36,0,0,0,0-.11h0c0,.08,0,.16.06.27l.11,0c0,.08,0,.15,0,.25a1.46,1.46,0,0,0,.09-.16c0,.06.05.08.07.14a.9.9,0,0,0,.07-.11.54.54,0,0,0,.1.16c.1.16.05.27-.13.33s-.05.05-.07.07.14,0,.14.06a.57.57,0,0,1,0,.26c0,.08-.06.16-.05.23a3.47,3.47,0,0,0,.17.45,1.41,1.41,0,0,0,.14.18.42.42,0,0,0,.09-.22,2.11,2.11,0,0,1,.06-.29c.09-.12.13-.2,0-.33s-.13-.19.07-.24v-.22l.2,0c0-.1.07-.18.1-.28l.08.09a1.56,1.56,0,0,1,.12-.17h0c0,.19,0,.4,0,.6l.08-.08s0,0,0,0-.1.14-.18.23l.15-.05c0,.05,0,.1,0,.17l.29-.15a.55.55,0,0,1-.2.33c-.15.1-.16.17,0,.32a1.29,1.29,0,0,0-.33-.06c-.09,0-.21,0-.25,0a.65.65,0,0,0-.17.56.2.2,0,0,0,.12.13c.16.06.27.14.25.32h0a1.66,1.66,0,0,1,.06-.21l.07.05.14-.22a.07.07,0,0,1,.06,0c0,.1,0,.21,0,.33l.1,0c0,.15.09.28.14.44l.2-.08a3,3,0,0,0-.08.39.22.22,0,0,1,.11,0v.05a.67.67,0,0,1-.2,0,.21.21,0,0,0-.26.08c-.11.19,0,.33.08.49.12.33.25.65.38,1,.05.14.07.29.13.43.14.35.31.7.46,1a2.27,2.27,0,0,0,.15-.31.43.43,0,0,1,0,.23.87.87,0,0,0-.05.31c.23.76.47,1.5.67,2.26.3,1.1.54,2.2.82,3.3a25.41,25.41,0,0,1,.61,3.08l.07.55c.15-.63.26-1.24.4-1.85.21-1,.43-2,.66-3.05a.4.4,0,0,1,.07-.18c.12-.16.34-.19.43-.07l1.3,1.83.49.67a1.34,1.34,0,0,0,0-.24,8.46,8.46,0,0,1,0-2.75,2.39,2.39,0,0,0,.07-1l0,0-1.24-1,0,0,.38.08a.07.07,0,0,1,0-.05l-.29-.1a3.62,3.62,0,0,1-.35-.13c-.24-.16-.4-.43-.68-.56,0,0,0-.13-.06-.14-.29-.07-.39-.32-.57-.49a2.41,2.41,0,0,1-.2-.22,2.23,2.23,0,0,1,1,.61l-.17-.23.05,0c.15.11.31.23.45.35s0,0,0-.05a.3.3,0,0,1,.14.06c.25.23.5.45.73.68a.46.46,0,0,1,0-.08l.33.42s0-.08,0-.13l.44.53c.06-.06.13-.1.14-.16.14-.5.26-1,.4-1.52.08-.27.2-.56.3-.83l.07,0a4.09,4.09,0,0,0-.18.49c-.13.62-.25,1.25-.39,1.87a.42.42,0,1,0,.31-.17.14.14,0,0,1-.05-.1c0-.26-.08-.52.08-.76a.11.11,0,0,0,0-.07,1.44,1.44,0,0,1,.21-.77,8.51,8.51,0,0,0,.34-.83,1.37,1.37,0,0,1,.46-.69c.19.09.15.25.12.4s-.05.05-.06.09c0,.25-.05.5-.08.75s-.09.27-.12.42,0,.34-.1.51a7.18,7.18,0,0,1-.26.87c0,.1-.13.27-.2.29a.24.24,0,0,0-.25.22.69.69,0,0,0,.09.75c.32.37.59.76.88,1.15l.08-.09a24.75,24.75,0,0,0,1.69,2.53,5.84,5.84,0,0,1,.32-1,12.58,12.58,0,0,0-.48-1.55.85.85,0,0,1,.15.28c.14.35.27.69.41,1a13.25,13.25,0,0,1,.6-1.45l-.44,1.85a6.36,6.36,0,0,1,.5,1.75,3.06,3.06,0,0,0,.43,1.54,5.79,5.79,0,0,1,.33.66,1.09,1.09,0,0,1,.1-.26.55.55,0,0,1,.16-.18.57.57,0,0,1-.33-.64l.11.13.21-.56c.06.12.09.2.13.29h.06c0-.12,0-.23,0-.41a1.28,1.28,0,0,1,.09.22,3,3,0,0,0,.06-.36.74.74,0,0,1,.09.12c0-.12,0-.2,0-.32,0,.09.06.15.09.21-.06-.24.2-.19.27-.32,0,.18,0,.34,0,.5h0l-.11.12.09.06h0l.27.27c-.23-.39-.23-.39-.22-1.06l.31.42a.77.77,0,0,0,0-.15,1.57,1.57,0,0,0-.14-.25l.05,0,.13.1a.16.16,0,0,0,0-.07c-.18-.17-.41-.3-.44-.59a2.11,2.11,0,0,1,.26.22.13.13,0,0,0,.06,0,3.68,3.68,0,0,1-1-1.48,2.49,2.49,0,0,1,.3.19.14.14,0,0,0,0-.11c-.13-.12-.28-.22-.38-.33s-.17-.51-.37-.72c0,0,0-.15,0-.16-.2-.16-.18-.38-.27-.59a2.76,2.76,0,0,1-.08-.27c.34.19.4.51.54.8a1.8,1.8,0,0,0,0-.22s.05,0,.07,0c.09.24.19.47.28.72a1.64,1.64,0,0,0,0-.32h.09c.14.35.27.71.41,1.06,0,0,0-.05,0-.08h.06c0,.16.07.33.12.53a.82.82,0,0,0,0-.18h.06c.07.3.15.58.22.87h0l0-.3h.05c.05.16.09.31.13.46s0,.16,0,.16a1.82,1.82,0,0,0,.15-.23,5.69,5.69,0,0,0,.2-.93h0l.06.42a.88.88,0,0,0,.35-.29c.12-.15.22-.36.37-.45l.06,0s0,0,0-.06l.05,0,0,.05a.39.39,0,0,0,.2-.5c0-.13,0-.44.36-.36.06-.11.14-.26.21-.37.09.08.16.16.26.24a.66.66,0,0,0,0-.15c-.18-.46-.36-.89-.56-1.33a.79.79,0,0,1-.13-.48c0-.16-.17-.33-.25-.5a.14.14,0,0,1,0,0c.14-.1,0-.17,0-.24s-.13-.24-.19-.36l.05,0a.49.49,0,0,0,.12.13,3.07,3.07,0,0,0-.23-.39c-.07-.1,0-.21-.07-.33a1.72,1.72,0,0,1-.19-.41c-.06-.13-.13-.26-.21-.42l.14.07c-.07-.18-.15-.35-.22-.52l.06,0,.19.23a1.87,1.87,0,0,1-.36-1,1.22,1.22,0,0,1,.2.27c.11.18.3.32.29.55s0,.18,0,.27,0-.11.06-.22c.23.38.08.77.15,1.11H148l0-.59a1.15,1.15,0,0,1,.17,1h.06c0-.11,0-.21.06-.36a3.28,3.28,0,0,1,.39,1.77h.07a1.81,1.81,0,0,1,0-.31c.27.31,0,.66.11,1,0-.12,0-.24,0-.35H149A2.18,2.18,0,0,1,149,20a2.28,2.28,0,0,0,.2,1.26c.11-.11.23-.23.35-.33a1.24,1.24,0,0,0,0,.22l.34-.21,0,.06c-.17.27-.36.54-.56.83,0,0,0,.08,0,.11l.07,0s0,0,0,.06l-.07,0c.06.17.12.34.17.51h0c.13.37.26.72.38,1.07a2.79,2.79,0,0,1,.07.4s0,.07.06.1l.33,1.48a7.49,7.49,0,0,0,1.61-1.12c.19-.17.34-.35.51-.53L151,21.22l.05,0c0,.06.07.11.1.16.23.36.46.7.69,1s.61.9.9,1.35a2.65,2.65,0,0,0,.26-.39h0a3.56,3.56,0,0,0,.68-2.23,1.85,1.85,0,0,1,.13-.66c.22-.58.45-1.14.66-1.72.29-.75.51-1.53.82-2.27a4,4,0,0,1,1.47-2,1.24,1.24,0,0,0,.33-.44c.2-.35.31-.8.78-.89a1.42,1.42,0,0,0,.93-.71.62.62,0,0,1,.71-.27,4.8,4.8,0,0,0,1.13.1,12,12,0,0,0,3-.79,3.14,3.14,0,0,1,2-.25,1.84,1.84,0,0,0,1.84-.54,5.31,5.31,0,0,0,1-1.86A.48.48,0,0,0,168.47,8.49ZM112.05,22.11l.26-.63.07,0C112.27,21.71,112.15,21.91,112.05,22.11ZM113.42,21l0,.29c-.21.07-.33-.06-.44-.19s-.2-.14-.31,0a2.5,2.5,0,0,0-.24.22,0,0,0,0,0,0,0c.11-.22.23-.43.34-.64h-.3v0l.16-.07a1.35,1.35,0,0,1,0-.18l.11,0a2.8,2.8,0,0,0,.06-.28h0c0,.09,0,.19,0,.28l.08,0c-.32-.58.26-.67.53-.92,0,.08-.06.17-.09.26h.13a1.48,1.48,0,0,1-.16.25l.18,0,0,0-.21.17.16.05-.27.29.5,0a.79.79,0,0,1-.14.11.41.41,0,0,1,.19.41C113.64,21.18,113.52,21,113.42,21Zm.4-3.49c.12.15.25.29.39.45a1,1,0,0,1,0-.18c.22.21.35.44.64.57s.22.28.31.41.11,0,.12,0l.23.21c.23.3.47.58.7.88a4.84,4.84,0,0,1,.3.44c-.06-.06-.13-.1-.19-.17a1.79,1.79,0,0,0-.73-.54,2.63,2.63,0,0,1-.41-.27s0-.08,0-.14a1.07,1.07,0,0,1-.57-.38,2.26,2.26,0,0,0,.35.09s0,0,0,0a4.51,4.51,0,0,1-1.56-1l.41.06a2.37,2.37,0,0,1-1-.53c.25.08.45.15.65.2v0a3.35,3.35,0,0,1-1.07-.49h.15c-.46-.08-.62-.48-.91-.73a2,2,0,0,1,.93.55c-.06-.07-.11-.14-.17-.2l0-.05a4.91,4.91,0,0,1,.44.31l.06-.09.88.79s0,0,0-.06Zm-.88-3.06c.08,0,.12.14.2.17a1.49,1.49,0,0,1,.59.63.12.12,0,0,1,0,.07.68.68,0,0,1,0,.2l-.33.09-.27-.16-.59-.41c-.18-.12-.38-.22-.57-.33l-.07-.09a1.66,1.66,0,0,0-.14-.13,4.21,4.21,0,0,1-.45-.28l-.63-.5a.55.55,0,0,1-.16-.18s0-.16.07-.17a.57.57,0,0,1,.32,0c.26.12.52.25.77.39l.24.12Zm12.85,9a.21.21,0,0,0,0-.11,1.11,1.11,0,0,0,.12.15l.23,0-.24.2.7.34a3.11,3.11,0,0,1-.32,0c-.21,0-.29,0-.3.23a.34.34,0,0,1-.23.35l-.17-.18-.32.11c0-.12-.09-.25-.14-.38h.06l-.12-.05.34-.23c-.36-.09-.36-.09-.31-.17h-.25v0l.14-.07a2.14,2.14,0,0,1-.27-.09l.1-.08-.27-.15C125.06,23.23,125.48,23.18,125.79,23.51Zm5.44-3.18c.07.16.12.34.18.5,0-.08-.11-.12-.14-.2-.18-.38-.34-.75-.51-1.12,0-.06,0-.14-.08-.21a.49.49,0,0,1,.12.13C131,19.73,131.09,20,131.23,20.33Zm-1.06-2.85a3.87,3.87,0,0,1,.26.49.56.56,0,0,1,.08.2,2.76,2.76,0,0,1,.17.73,1.15,1.15,0,0,0,0,.37c-.11-.1-.18-.26-.38-.14l-.13-.17c-.12-.19-.25-.34-.35-.53a6.19,6.19,0,0,1-.28-.58q-.15-.27-.27-.54a2.09,2.09,0,0,1-.13-.35,3.06,3.06,0,0,0-.27-.58A.24.24,0,0,1,129,16a2,2,0,0,1,.35.3,7.66,7.66,0,0,1,.45.66C129.9,17.13,130.05,17.3,130.17,17.48Zm5.73-2.27s-.17,0-.28.09,0,.07,0,.12,0,.09,0,.19-.24,0-.32-.12c-.35-.26-.35-.26-.62.08l-.06.06h0c.09-.24.2-.47.29-.7h-.27s0,0,0,0l.15-.07c0-.07,0-.11,0-.18l.1,0c0-.47.34-.7.67-1,0,.09-.06.18-.08.27h.13l-.11.24a.76.76,0,0,0,.16-.06s0,0,0,0-.12.12-.17.17c.22.15-.07.21-.07.34h.39l-.07.09C135.83,14.88,136,15.13,135.9,15.21ZM153,23.09s0,.08,0,.13a.75.75,0,0,0,.06.13c0-.05-.08-.1-.13-.16a.74.74,0,0,0-.13-.08,1.26,1.26,0,0,1-.26-.13c-.19-.18-.43-.33-.47-.62,0,0,0,0,0,0a3.88,3.88,0,0,1-.4-.53c-.21-.35-.39-.72-.58-1.07-.1-.2-.21-.42-.3-.62s0-.14,0-.22a.69.69,0,0,1,.25.1c.24.22.47.43.69.66,0,0,0,0,0,.06s.19.29.3.44,0,.08.07.09c.25.13.28.39.42.58a2.29,2.29,0,0,1,.31.55C152.93,22.6,153.25,22.8,153,23.09Z"/><path d="M93.45,27.18a16.21,16.21,0,0,1-1.74-2.95,1.16,1.16,0,0,1-.13-1,.7.7,0,0,1,.72.45c.26.5.55,1,.76,1.49a5,5,0,0,1,.19,1c0,.16,0,.32.08.48s.07.32.11.47Z"/><path d="M168.76,27.19a2,2,0,0,1,.83-1.88c0,.11.09.22.06.3A5.29,5.29,0,0,1,168.76,27.19Z"/><path d="M164.63,21.2a.9.9,0,0,1-.11.82,9.79,9.79,0,0,1-1.38,2.14,2.52,2.52,0,0,0-.3.45c0-.37.09-.75.16-1.12a2.57,2.57,0,0,1,.25-.67c.24-.45.5-.87.75-1.3A.59.59,0,0,1,164.63,21.2Z"/><path d="M129.54,40.86l1.21,1.33-.12,1.1S20.49,43.11,7.9,42.84H9.27c9.05-.08,54.16-.17,63.21-.25,4.14,0,8.29-.05,12.43-.11a23.06,23.06,0,0,0,2.33-.26l4.84-.52c.13,0,.36,0,.36-.07,0-.29.35-.28.46-.47,0,0,0,0,0,0a2.26,2.26,0,0,0-.6-1.19,7.45,7.45,0,0,0-3.53-.4q-.86.09-1.71.12a6.84,6.84,0,0,1,2.37-.3c.78,0,1.56.11,2.39.17a6.66,6.66,0,0,0-2-2.57,1.61,1.61,0,0,0-.36-.15c-.23-.08-.47-.14-.7-.21a3.46,3.46,0,0,0-3,.19.91.91,0,0,1-.56.11l1.15-.68L85.17,36v-.09c.41,0,.83,0,1.24.09a1.32,1.32,0,0,0,.92-.13,4,4,0,0,1,1.6-.49c.07.09.11.22.19.25a1.7,1.7,0,0,1,1.09.79,4.7,4.7,0,0,0-.59-.4,5.18,5.18,0,0,0-.93-.34c-.14,0-.33,0-.24.26-.28,0-.58-.13-.83.19l1.66.45-.15-.32c.4.24.71.62,1.2.7,0,0,.1,0,.16-.08L92,37.92l0,.35-.8-.68-.37-.25-.09.11.87,1a1.45,1.45,0,0,0,0,.43,5,5,0,0,0,.5.79s.19-.14.28,0,.37.26.64.12c-.09-.14-.16-.27-.23-.39.37.08.44.41.57.7s.13.38.45.31a11.82,11.82,0,0,0-1.59-2.13,3.68,3.68,0,0,1-.31-.38l.51.33.05,0a3.69,3.69,0,0,0-.25-.34l-2.41-2.7c-.25-.73-.95-1-1.51-1.32-.92-.6-1.86-1.17-2.78-1.77a.84.84,0,0,0-.67-.16c-.4.09-.81.11-1.21.16l0-.11,1.1-.38c-.49-.46-1-.87-1.67-.68a1,1,0,0,1,.76-.2c.66.09,1.33.08,2,.14a2.17,2.17,0,0,1,.75.18,3.39,3.39,0,0,0,1.76.08c.07,0,.14-.11.21-.16h0l.87.18-.4.14.2.46h0l-.33-.28c-.09-.06-.19-.16-.28-.15-.38.05-.75.12-1.2.2a9.72,9.72,0,0,0,3.67,2.61c-.23-.32-.48-.62-.72-.93s-.31-.44-.47-.67h0a5.44,5.44,0,0,1,.55.52c.39.44.77.89,1.15,1.33l.09-.06a13.66,13.66,0,0,0-.84-1.61,6.88,6.88,0,0,1-.37-.78,13.29,13.29,0,0,1-.65-1.31,1.73,1.73,0,0,0-.42-.59c-1.23-1.27-2.46-2.54-3.71-3.8a1.67,1.67,0,0,0-.47-.28,2.3,2.3,0,0,1-.56-.25l.48-.09c-.45-.51-.85-1-1.28-1.4a1.12,1.12,0,0,0-.5-.2c-.18,0-.36-.05-.66-.09a1.58,1.58,0,0,1,1.17,0c.34.1.69.15,1,.26.58.19,1.16.41,1.73.64A2.66,2.66,0,0,1,88.07,26a.86.86,0,0,0,.61.43,2.39,2.39,0,0,1,1.23.61l-1.26-.24.23.38a10.23,10.23,0,0,0,2,2.36,4.51,4.51,0,0,1,1.14,1.29,34.19,34.19,0,0,0,2.14,3.28,3.23,3.23,0,0,0,.31.29,2.52,2.52,0,0,0-.58-1.68A3.43,3.43,0,0,1,93.4,32l-1.58-2.44c-.41-.62-.83-1.23-1.25-1.85.42.45.87.87,1.26,1.34.62.76,1.21,1.56,1.81,2.34a2.13,2.13,0,0,0,.38.42,16.11,16.11,0,0,0-.33-2.51c-.12-.82-.29-1.63-.44-2.44l.12,0c.19.72.39,1.43.56,2.15.3,1.29.58,2.58.88,3.87a3.16,3.16,0,0,0,.28.72c.53,1,1.09,1.91,1.59,2.88a10.19,10.19,0,0,1,.49,1.3l.21.55.24-.64.17,1.29.85-.26c-.46.65-.82,1.23-.24,1.9.28,0,.3-.17.28-.4s0-.39,0-.67l.47.53a7.42,7.42,0,0,0-.38-2.89c.3.18.31.18.6.73.14.28.28.56.48.94l.06-.73.42.91c.24-.31.1-.61.18-.9a1.39,1.39,0,0,1,.15.82c0,.24-.16.51.12.77l.15-1,.53,1a4.09,4.09,0,0,1,.8-1.5c-.27.85-.27,1,0,1.46a1.62,1.62,0,0,0,.22-1.17c0-.1-.14-.18-.21-.27.24-.26-.06-.49,0-.85l.51.84.61-1.69.53,2.39h.06l.12-.67h0l.22,1.26c.29-.35.13-.75.33-1l.15.16c.17-.78-.11-1.6.31-2.27v1.16a1.93,1.93,0,0,0,.15,1.25,1.68,1.68,0,0,0,0-.67,3.83,3.83,0,0,0-.16-.58c.16,0,.16.44.48.2a2.16,2.16,0,0,0,.7,2.08L106,38.55l.08,0,.56,1,.09,0,.11-1.41.08,0,.27,1.06.11,0L107.14,37h.08l.18,1.21a4.31,4.31,0,0,0,.39-1.56l.09,1.12H108l.56-2.53.6,1.74.46-.78c0,.34,0,.58,0,.81,0,0-.09,0-.09,0a1.33,1.33,0,0,0,.2,1.34,1.62,1.62,0,0,0-.06-1.31,2.16,2.16,0,0,1,.68,1.43,2.14,2.14,0,0,0,.56-1c.24.31.13.65.19,1,.31-.21.16-.47.18-.7a2.44,2.44,0,0,1,.09-.75l.13.73.09,0,.42-.91v.81l.32-.49a.39.39,0,0,1,.06.14c0,.28,0,.55,0,.89l.19-.16c.14.19.24.07.36,0,.29-.29.59-.56.93-.89l-.12-.64,0,0,.32.5.43-.08a.8.8,0,0,0-.32.83,8.79,8.79,0,0,1-.08,1.26c.67-.22.75-.84.85-1.55l.41.75.34-.14.07.67h.09l.11-.39.2.44c.08,0,.16-.08.16-.1a4.52,4.52,0,0,0-.11-.53c-.09-.23-.2-.46-.29-.7l.12-.05.58,1.13.34-.19-.62-1.82a5.71,5.71,0,0,1,1.31,1.87l.38-1.2h.08c.09.46.16.92.27,1.37s.28.86.47,1.42V38.21a2.4,2.4,0,0,1,1,1.25,2.2,2.2,0,0,1,1-1c-.16.46-.43.84-.25,1.37a2.31,2.31,0,0,0,1.08-1.69l-.14,1.23c0,.09-.06.18-.14.39l1.19-.61V40.4a2,2,0,0,0,1.31-.93.69.69,0,0,0,0-.47,5.18,5.18,0,0,0-.26-.6l.13-.06,1.08,1.87.69-1.84.28.32c-.09,0-.22,0-.24.05a3.41,3.41,0,0,0-.43,1.92,2.23,2.23,0,0,0,.85-1.29.58.58,0,0,0-.2-.69c.67.18,1,.74,1.39,1.3a3.65,3.65,0,0,1,2.4-2.4c-1.51,1.08-1.95,1.75-1.72,2.69.44-1,.57-1.21,1.49-1.59a5,5,0,0,1,.22.84,8.14,8.14,0,0,1,0,1c.37-.83.37-1.64.71-2.39l.18.24c-.05,0-.12,0-.14.07a2.15,2.15,0,0,0,0,1.46,1.18,1.18,0,0,0,.18-1,1.77,1.77,0,0,1,0-.33l.36.76.15-.24.22.38.11,0V38.32m23.37,1.6.32-.71.07,0,.07.77c.43-.5.18-1,.2-1.41l.34.81.32-.71s0,0,0,0l0,.06a2.49,2.49,0,0,0,0,1.43.57.57,0,0,0,.27-.72c-.08-.24-.19-.48-.29-.71l.61.78.08-.25.22.38.21-.17,0,.64h.11l.09-.58.37.59c.19-.35.37-.66.53-1a.83.83,0,0,0,0-.32,17.41,17.41,0,0,0-.8-4.1s0-.07.06-.14c.18.41.37.81.53,1.23s.3.86.46,1.33c.26-.19.21-.42.21-.63a14.13,14.13,0,0,1,.44-4c0,.52-.08,1-.09,1.55a7.5,7.5,0,0,0,.09,1.63c.06-.13.13-.25.18-.38a11.09,11.09,0,0,0,.75-2.85,3.78,3.78,0,0,1,.26-.85c.2-.54.44-1.06.6-1.62a2.42,2.42,0,0,0,0-.93,16.16,16.16,0,0,1-.22-1.72l.5,1.52h.1c.45-1.48.9-3,1.36-4.44a19.5,19.5,0,0,1-1.29,5.21l.12.05c.09-.18.18-.35.26-.52q1-2.29,2.08-4.58a2.42,2.42,0,0,1,.29-.42h0c-.29.74-.59,1.48-.89,2.25.35-.29.68-.53,1-.81a.94.94,0,0,0,.23-.43,2.43,2.43,0,0,1,1-1.33c.62-.44,1.27-.85,1.91-1.26a2.9,2.9,0,0,0,.34-.19,1.17,1.17,0,0,1,.93-.28s0,.09,0,.09a1.61,1.61,0,0,0-1.16,1.1c-.12.28-.28.56-.46.9l.46,0a.41.41,0,0,1,0,.1,2.6,2.6,0,0,0-1.19,1.34c-.67,1.2-1.4,2.37-2.07,3.57a3.33,3.33,0,0,0-.3.94c-.05.2.12.19.25.18-.17.1-.35.17-.4.42-.14.69-.3,1.39-.45,2.08a1.57,1.57,0,0,0,.32-.47l.94-1.83a21.68,21.68,0,0,0-.85,2.69A8.77,8.77,0,0,0,166.44,30c-.47,0-.85.1-1.23.11a.61.61,0,0,0-.5.29l-.14-.2.49-.39c.09,0,.19.11.27.1.28,0,.55-.09.82-.14.56-.11.8-.44.79-1.1l-1.69.86a1.35,1.35,0,0,1,.69-.7c.3-.18.62-.33.94-.49s.53-.26.64-.58c0-.11.21-.18.33-.26.67-.43,1.34-.87,2-1.29a.86.86,0,0,1,.47-.09c-.43.22-.8.47-.73,1a.2.2,0,0,1-.08.13c-.45.32-.53.86-.84,1.3.51.16.9-.34,1.48-.06-.7,0-.94.49-1.34.94l1.14.13v.09c-.33,0-.66.11-1,.12a1,1,0,0,0-.77.36c-.32.39-.67.75-1,1.12a1.8,1.8,0,0,0-.47,1c-.07.47-.2.94-.29,1.4a3.46,3.46,0,0,0,2.91-.21l0,.11-.85.44,1,.32,0,.1c-.4-.05-.8-.08-1.2-.16a1.28,1.28,0,0,0-.86.13l-.21.09c-1.25.56-1.32.67-1.48,2.15h.82v.1l-.42,0c-.47,0-.47,0-.58.47a1,1,0,0,1-.07.15l.06-.88c0-.37.22-.72.06-1.12a1.08,1.08,0,0,0-.26.45c-.25,1.22-.27,1.69-.1,2.07l.25-.54.05.36c.79,0,1.22-.53,1.78-.9l-.53.57,1.81-.18v.08l-1.48.25c-.31,0-.64.06-.8.4-.08-.06-.16-.19-.22-.18a5.61,5.61,0,0,0-.62.18v1l.7-.89a1.93,1.93,0,0,1-.08.43,1.45,1.45,0,0,0,.29,1.86,3.85,3.85,0,0,0,2.19,1.24c1.05.23,2.1.52,3.15.77a2.9,2.9,0,0,0,.66.07c7.61.05,15.23.07,22.84.14,7.07.05,48,.15,55,.23l.21,0c-5.66.29-79.09.44-120.41.43l-1-3.81c.24-.47.34-.88.78-1.18-.15.65.44,1.13.48.44a4.62,4.62,0,0,1,.11-.63h.05l.13.84.61-.18c-.32.53-.61,1-.08,1.43.33-.16.06-.49.23-.7l.29.21a9.08,9.08,0,0,0-.14-2.09l.71,1.2.1-.37.3.52.19-.39.06,0v.8H133l.17-.64c.19.23.17.56.45.66l.38-.86.1,0v.84c.49-.53.17-1,.1-1.62l.36.53.47-1.22.43,1.77.12-.42c.21.2.05.55.3.74a7.8,7.8,0,0,0,.37-1,6.91,6.91,0,0,0,0-1h.09c0,.21,0,.43.07.65s-.14.6.21.82l-.22-.83a.86.86,0,0,1,.36.64,1,1,0,0,0,.52.9l-.12-.66.05,0,.39.6.1,0,.05-1h.06l.25.76.07,0-.08-1.18h.06l.13.49h.09l.21-.85.1.55L139,37l-.09,1.59a.87.87,0,0,0,.29-.43,1.47,1.47,0,0,0-.16-1.39l0-.34h.08l.41,1.06L140,37c-.14.6-.4,1.09.09,1.63v-.89l.08,0,.42.95.41-.74.16.65h.07v-1l.29.57m21.87.17-.18.72c.12-.06.2-.22.22-.22.22.06.25-.05.26-.21s-.14-.26-.31-.27c.14-.31.4-.58.3-1a3.18,3.18,0,0,0-.64,1.32,1.71,1.71,0,0,0-.28,1,1,1,0,0,0,.26-1Zm1.49-2.87c0,.05.12.14.15.13.33-.14.29-.44.35-.77l-.32.3a2.36,2.36,0,0,1,.28-.6,2,2,0,0,0,.39-1l-.46.37c.21-.28.41-.57.65-.84a1.36,1.36,0,0,0,.36-.75c-.33.32-.62.58-.87.87a1.73,1.73,0,0,0-.28.54s.1.1.15.16a3.67,3.67,0,0,0-.27.52A1.33,1.33,0,0,0,164.87,35.47Zm-1.2-.87a1.64,1.64,0,0,0-.53,1.33l.4-.58c-.13.36-.27.72-.41,1.08s-.37.93-.54,1.4a.81.81,0,0,0,0,.76l1.69-3.94-.11-.07-.36.39c0-.14.09-.31-.13-.36a2.2,2.2,0,0,1,.36-.33,3.39,3.39,0,0,0,1.34-2.15c-.47.48-.92,1-1.37,1.47a2.92,2.92,0,0,0-.32.38,2.42,2.42,0,0,0-.19.51S163.6,34.56,163.67,34.6ZM91.78,36.19l1.56,1.6c-.23-.81-.44-1.63-1.29-2l.23-.07c-.26-.25-.46-.48-.7-.67-.43-.32-.89-.61-1.33-.92s-.85-.6-1.26-.92-1-.83-1.55-1.28-1.08-.24-1.65-.09c0,.07,0,.09,0,.1l2.51,1.54c.05,0,.13.08.15.06.3-.23.42.08.57.21.3.25.57.53.86.8a2.84,2.84,0,0,0,1.21.76,3,3,0,0,1,.54.27h-.36l.43.61L91,35.59l-.09.09,2.91,3.81a1.19,1.19,0,0,0-.27-.86Zm.74-3.62L91.6,32a17.14,17.14,0,0,0,.94,1.62,16.09,16.09,0,0,0,1.2,1.28l.1-.07a5.37,5.37,0,0,0-1.25-2.23c.14.08.25,0,.18-.12a3.3,3.3,0,0,0-.45-.77c-.42-.52-.87-1-1.32-1.51a15.3,15.3,0,0,1-1.77-2.16,10.93,10.93,0,0,0-.88-1.15,1.2,1.2,0,0,0-.28-.27,6.52,6.52,0,0,0-1.75-.3L89,29,89,28.57a22.86,22.86,0,0,1,1.36,1.91,3.75,3.75,0,0,0,1.18,1.23A7.42,7.42,0,0,1,92.52,32.57Zm30.58,5.62-.26.07m41.61-10.13,1.83-3a1.52,1.52,0,0,0-.32.08c-1.26.55-1.31.56-1.8,1.86a17.19,17.19,0,0,1-1.31,2.82,1.68,1.68,0,0,0-.15.3,1.72,1.72,0,0,0,0,1.08,2.5,2.5,0,0,0,1-1.46c.23-.64.45-1.3.71-2Zm-3.15,5.8a9.25,9.25,0,0,0-1,5.23A18.8,18.8,0,0,0,161.3,33.93ZM84.4,24.37l1.26,1.32a.47.47,0,0,0,.2.1l1.71.35A5.86,5.86,0,0,0,84.4,24.37Zm78.24,4.87a7.62,7.62,0,0,0,1.61-3.13A3.17,3.17,0,0,0,162.64,29.24Zm5-6.39a5.25,5.25,0,0,0-2.52,2.36l1.42-.69a.46.46,0,0,0,.17-.14C167,23.9,167.31,23.41,167.65,22.85Zm-4.48,8.57a7.08,7.08,0,0,0-.79,3.81A10.24,10.24,0,0,0,163.17,31.42ZM93.41,36.5a3.81,3.81,0,0,0-1.54-2.73c.37.83.71,1.6,1.08,2.36C93,36.26,93.19,36.33,93.41,36.5Zm75.45-8.75c-1.23.5-1.58.84-1.6,1.5A2.06,2.06,0,0,0,168.86,27.75Zm-3,4.33A2.08,2.08,0,0,0,166.8,31c0-.08.07-.21.12-.22.44-.09.42-.47.57-.77-.59,0-.65,0-.77.28C166.44,30.86,166.18,31.47,165.91,32.08ZM96.57,37.16a9.65,9.65,0,0,0-1.36-2.62C95.13,35.78,96,36.41,96.57,37.16Zm29.33,3.59c.48,0,.75-.13.85-.48a.89.89,0,0,0-.47-1.05Zm-28.64-1.1A2.13,2.13,0,0,0,97,38.3a4.72,4.72,0,0,0-.28-.52C96.41,39,96.54,39.39,97.26,39.65Zm6-2.53a2.72,2.72,0,0,0,.19,2.5A6.85,6.85,0,0,0,103.3,37.12Zm25.29,3.4a1.33,1.33,0,0,0,.64-1.54A1.17,1.17,0,0,0,128.59,40.52Zm-20.28-1.93a3.07,3.07,0,0,0,.25-2.59A6.19,6.19,0,0,0,108.31,38.59Zm-12-.11c.3-.93.14-1.25-.71-1.6C95.55,37.51,96,37.92,96.3,38.48Zm68.15,1.92h.15l.15-2.07c-.4.19-.4.19-.43.44A4.08,4.08,0,0,0,164.45,40.4Zm-70.93-3a3.57,3.57,0,0,0,1.12,2.08A4.47,4.47,0,0,0,93.52,37.38Zm71.51-1-.1,0a5.7,5.7,0,0,0-.53,1.9c.31,0,.4-.16.43-.37C164.9,37.36,165,36.87,165,36.37Zm-80.7-5.43a1.29,1.29,0,0,0,1.74.34A6.55,6.55,0,0,0,84.33,30.94Zm29.51,6.68a2.48,2.48,0,0,0-.64,1.5C113.75,38.82,113.93,38.42,113.84,37.62Zm21.27.07-.13,0a1.73,1.73,0,0,0,.23,1.77Zm32.21-3.46c-.73-.34-1.1-.25-1.08.58Zm-6-2.12c-.08.3-.17.59-.25.89l-.23,1A1.77,1.77,0,0,0,161.28,32.11Zm-70-.11a1.15,1.15,0,0,0,.9,1.22Zm1.63,8.14-.13.08.64,1.37.14-.07A2.85,2.85,0,0,0,92.88,40.14Zm70.51.46.24-1.47A1.35,1.35,0,0,0,163.39,40.6Zm-.46-.59-.14,0-.43.68.5.22Zm5.31-10.46c.49,0,.65-.38.94-.74C168.72,29,168.36,29,168.24,29.55Zm1.14-2.82c-.2.16-.41.31-.62.46a2.54,2.54,0,0,1-.28.16C169.17,27.35,169.23,27.3,169.38,26.73ZM165,39.05c-.19.87-.19.87,0,1.18C165,39.88,165.28,39.55,165,39.05Zm-43,1.41a.93.93,0,0,0,.35-.87A.73.73,0,0,0,122,40.46Zm43.24-2.33c-.27.2-.23.49-.24.83C165.43,38.75,165.27,38.41,165.26,38.13Zm.67-3.86c-.42.2-.39.5-.4.89A.94.94,0,0,0,165.93,34.27Zm-1.36,1.08a.88.88,0,0,0-.28.85C164.6,35.94,164.55,35.64,164.57,35.35Zm-71,.37.38.81A.61.61,0,0,0,93.59,35.72Zm2.52,3.71-.14,0,.1.39.1,0Zm28.08.45-.28.61C124.25,40.35,124.37,40.22,124.19,39.88ZM93.45,36.69l-.11.11.31.37.1-.08Zm70.59.48.16.06.1-.4-.11,0Zm-5.73,2.7h.12V39.5h-.07Zm5.36.45-.11,0-.06.39.09,0Zm-47.46-1h.12V39h-.11Z"/><path d="M141,38.16c.51,0,.25-.52.55-.67l.32.35a8.4,8.4,0,0,0,.52-2.35l.54,1.61.25-.37.24.7.38-.35.07.06-.27.88.08,0,.44-.63c.17.33,0,.68.38.91l.79-.79.13.08-.29.93c.84-.39.59-1.06.69-1.75l.29.74,1.06-1.14,0,2.11.3-.4c.22.3-.12.62.15.93a7.48,7.48,0,0,0,.83-.9,5.42,5.42,0,0,0,.39-1.11l.13,0c0,.25-.09.49-.13.75s-.39.59,0,1l0-1a1,1,0,0,1,.27.86,1.08,1.08,0,0,0,.39,1.19l.07-.77h.07l.33.82H150l.41-1.07.09,0,.07.93h.11l.28-1.32.08,0,0,.59.12,0,.57-.83-.06.64.86-1-.67,1.7a.89.89,0,0,0,.53-.35,1.41,1.41,0,0,0,.26-1.58l.17-.35.1,0,.19,1.33.69-.36c-.39.6-.91,1-.44,1.82l.3-1h.12c.08.38.15.75.25,1.21l.79-.64v.78l.1,0,.33-1.06.19.74"/><path d="M141.22,37.71l.63-.06c-.41.45-.77.85-.33,1.39"/><path d="M145.82,37.25l-.12,0a1.74,1.74,0,0,0-.09,1.78Z"/><path d="M14.63,54.24h2.21V67.68h7v2H14.63Z"/><path d="M38.09,54.24h2.22V63a10.55,10.55,0,0,1-.26,2.69,5.76,5.76,0,0,1-.64,1.51,4.63,4.63,0,0,1-.94,1.08,7.06,7.06,0,0,1-4.8,1.59,7.18,7.18,0,0,1-4.85-1.58,4.6,4.6,0,0,1-.93-1.09,5.25,5.25,0,0,1-.63-1.47A10.8,10.8,0,0,1,27,63V54.24h2.22V63a6.55,6.55,0,0,0,.5,3,3.56,3.56,0,0,0,1.52,1.36,5.15,5.15,0,0,0,2.4.52,4.91,4.91,0,0,0,3.21-1,3.25,3.25,0,0,0,.94-1.31A8.06,8.06,0,0,0,38.09,63Z"/><path d="M58.29,66.11v2.44a11.61,11.61,0,0,1-5.62,1.33,8.73,8.73,0,0,1-4.4-1A7.7,7.7,0,0,1,45.42,66,7.81,7.81,0,0,1,44.37,62a7.55,7.55,0,0,1,2.4-5.68A8.26,8.26,0,0,1,52.71,54a13.88,13.88,0,0,1,5.41,1.27v2.38a10.65,10.65,0,0,0-5.3-1.55,6.12,6.12,0,0,0-4.41,1.68,5.93,5.93,0,0,0,0,8.38,6.18,6.18,0,0,0,4.42,1.64A10.05,10.05,0,0,0,58.29,66.11Z"/><path d="M71.34,54.24h2.77L67.4,61.57l8.36,8.13h-3l-7.91-7.64V69.7H62.62V54.24h2.21v7.07Z"/><path d="M79.07,54.24h2.22V69.7H79.07Z"/><path d="M98.59,54.24h2.1V69.7h-1.9L88.45,57.79V69.7H86.37V54.24h1.79l10.43,12Z"/><path d="M113.94,62.08h5.2v6.56a14.31,14.31,0,0,1-5.67,1.24,8.4,8.4,0,0,1-6.14-2.25,7.4,7.4,0,0,1-2.3-5.52,7.71,7.71,0,0,1,2.38-5.77,8.23,8.23,0,0,1,6-2.3,10.47,10.47,0,0,1,2.48.28,20.94,20.94,0,0,1,3,1v2.26a10.9,10.9,0,0,0-5.49-1.6,5.89,5.89,0,0,0-6,6,5.75,5.75,0,0,0,1.73,4.31A6.21,6.21,0,0,0,113.54,68a10.29,10.29,0,0,0,3.17-.61l.21-.07V64.05h-3Z"/><path d="M122.64,54.21h12.91v2h-5.39V69.7h-2.22V56.18h-5.3Z"/><path d="M145.35,54a8.32,8.32,0,0,1,6,2.26A7.57,7.57,0,0,1,153.7,62a7.38,7.38,0,0,1-2.41,5.66,8.51,8.51,0,0,1-6.06,2.25,8.06,8.06,0,0,1-5.83-2.25A7.46,7.46,0,0,1,137.07,62a7.68,7.68,0,0,1,2.35-5.74A8.18,8.18,0,0,1,145.35,54Zm.09,2.1a6,6,0,0,0-4.37,1.66,5.65,5.65,0,0,0-1.7,4.24,5.56,5.56,0,0,0,1.71,4.16,5.9,5.9,0,0,0,4.29,1.66,6,6,0,0,0,4.32-1.69,5.69,5.69,0,0,0,1.73-4.22,5.52,5.52,0,0,0-1.73-4.13A5.88,5.88,0,0,0,145.44,56.12Z"/><path d="M170.29,54.24h2.11V69.7h-1.91L160.16,57.79V69.7h-2.09V54.24h1.8l10.42,12Z"/><path d="M185.2,54.24h8.25v2h-6v4.31h6v2h-6V69.7H185.2Z"/><path d="M201.21,54.15h1.55L209.7,69.7h-2.27l-2.06-4.58h-6.6l-1.93,4.58h-2.27Zm3.25,9L202,57.55l-2.32,5.6Z"/><path d="M213,69.7V54.24h3.88a5.56,5.56,0,0,1,3.72,1.16A3.88,3.88,0,0,1,222,58.54a4,4,0,0,1-.67,2.34,4.11,4.11,0,0,1-1.94,1.47,6.79,6.79,0,0,1,1.45,1.33,28.06,28.06,0,0,1,2,2.93c.54.88,1,1.54,1.3,2L225,69.7h-2.63l-.67-1-.14-.19-.43-.61-.68-1.13-.74-1.2A12.36,12.36,0,0,0,218.41,64a4.39,4.39,0,0,0-1-.81,3.43,3.43,0,0,0-1.55-.25h-.57V69.7Zm2.88-13.58h-.66V61h.84a6.3,6.3,0,0,0,2.31-.29,2.15,2.15,0,0,0,1-.87,2.53,2.53,0,0,0,.35-1.32,2.33,2.33,0,0,0-.39-1.32,2,2,0,0,0-1.09-.84A8,8,0,0,0,215.92,56.12Z"/><path d="M240.55,54.24h2.07V69.7H240.4v-12l-4.76,6h-.41l-4.8-6v12h-2.22V54.24h2.1l5.14,6.35Z"/><rect class="cls-1" x="0.76" y="42.65" width="255.66" height="39.66"/><rect class="cls-1" x="4.56" y="46.59" width="248.06" height="31.99"/></g></g></svg>